<?xml version="1.0" encoding="UTF-8" standalone="no"?>
<!-- Generator: Adobe Illustrator 21.0.0, SVG Export Plug-In . SVG Version: 6.00 Build 0)  -->

<svg
   xmlns:dc="http://purl.org/dc/elements/1.1/"
   xmlns:cc="http://creativecommons.org/ns#"
   xmlns:rdf="http://www.w3.org/1999/02/22-rdf-syntax-ns#"
   xmlns:svg="http://www.w3.org/2000/svg"
   xmlns="http://www.w3.org/2000/svg"
   xmlns:sodipodi="http://sodipodi.sourceforge.net/DTD/sodipodi-0.dtd"
   xmlns:inkscape="http://www.inkscape.org/namespaces/inkscape"
   version="1.1"
   id="Layer_1"
   x="0px"
   y="0px"
   viewBox="0 0 237.5 893.2"
   style="enable-background:new 0 0 237.5 893.2;"
   xml:space="preserve"
   sodipodi:docname="icon.svg"
   inkscape:version="0.92.4 (5da689c313, 2019-01-14)"><metadata
   id="metadata1325"><rdf:RDF><cc:Work
       rdf:about=""><dc:format>image/svg+xml</dc:format><dc:type
         rdf:resource="http://purl.org/dc/dcmitype/StillImage" /></cc:Work></rdf:RDF></metadata><defs
   id="defs1323" /><sodipodi:namedview
   pagecolor="#ffffff"
   bordercolor="#666666"
   borderopacity="1"
   objecttolerance="10"
   gridtolerance="10"
   guidetolerance="10"
   inkscape:pageopacity="0"
   inkscape:pageshadow="2"
   inkscape:window-width="1920"
   inkscape:window-height="1017"
   id="namedview1321"
   showgrid="false"
   inkscape:zoom="0.52843707"
   inkscape:cx="453.58674"
   inkscape:cy="542.63422"
   inkscape:window-x="1912"
   inkscape:window-y="-8"
   inkscape:window-maximized="1"
   inkscape:current-layer="Layer_1" />
<style
   type="text/css"
   id="style953">
	.button{opacity: 0; fill:#FFFFFF;}
</style>
<g
   id="Buttons">
	<path
   id="left"
   class="button"
   d="M79.3,574.5c1.4-0.1,2.5-0.3,3.1-0.8s1-1.5,1-3.3V552c0-1.8-0.3-2.8-1-3.3c-0.6-0.6-1.7-0.8-3.1-0.8   c-0.4,0-0.8,0-1.2,0.1c-0.4,0-0.8,0-1.3,0l-41.5,1.7c-1,0-1.9,0.4-2.6,1.1c-0.6,0.5-0.9,1.3-0.9,2.2v16.4c0,0.9,0.4,1.6,0.9,2.2   c0.7,0.7,1.7,1,2.6,1.1l41.4,1.7c0.5,0,0.9,0,1.3,0C78.5,574.4,78.9,574.5,79.3,574.5" />
	<path
   id="ok"
   class="button"
   d="M102,548.9v23.4c0,1.5,0.6,2.9,1.6,3.9s2.4,1.6,3.9,1.6h23.4c1.2,0,2.3-0.5,3.1-1.3l0,0   c0.8-0.8,1.3-1.9,1.3-3.1v-24.5c0-1.2-0.5-2.3-1.3-3.1l0,0c-0.8-0.8-1.9-1.3-3.1-1.3h-24.5c-1.2,0-2.3,0.5-3.1,1.3l0,0   C102.5,546.6,102,547.7,102,548.9" />
	<path
   id="up"
   class="button"
   d="M109.4,525.9h18.4c0.9,0,1.6-0.1,2.2-0.3c0.5-0.2,0.9-0.4,1.1-0.6c0.4-0.4,0.6-0.9,0.8-1.7   c0.2-0.9,0.3-2.1,0.3-3.7c0-0.6-0.1-1.4-0.1-2.2c0-0.7-0.1-1.6-0.1-2.6c0-1.3-0.1-2.7-0.1-4c0-1.2-0.1-2.4-0.1-3.6l-0.8-17.6   c0-1-0.5-1.9-1.1-2.6c-0.6-0.6-1.5-1-2.3-1h-17.7c-0.9,0-1.7,0.4-2.3,1c-0.6,0.7-1.1,1.6-1.1,2.6l-0.8,17.6c-0.1,1.4-0.1,2.7-0.1,4   c0,1.2-0.1,2.5-0.1,3.7c0,1-0.1,1.8-0.1,2.6s-0.1,1.6-0.1,2.3c0,1.6,0.1,2.8,0.3,3.7c0.2,0.8,0.4,1.3,0.8,1.7l0,0   c0.3,0.3,0.7,0.5,1.1,0.6C107.8,525.8,108.6,525.9,109.4,525.9" />
	<path
   id="vol_x2B_"
   class="button"
   d="M85.7,353v-58.6c0-0.1,0-0.2-0.1-0.3s-0.2-0.1-0.3-0.1H34.5c-0.1,0-0.2,0-0.3,0.1l0,0   c-0.1,0.1-0.1,0.2-0.1,0.3V353H85.7z" />
	<path
   id="channel_x2B_"
   class="button"
   d="M151.9,294.3V353h51.6v-58.6c0-0.1,0-0.2-0.1-0.3l0,0c-0.1-0.1-0.2-0.1-0.3-0.1h-50.8   c-0.1,0-0.2,0-0.3,0.1S151.9,294.2,151.9,294.3" />
	<path
   id="channel-"
   class="button"
   d="M203.5,355.8h-51.6v58.6c0,0.1,0,0.2,0.1,0.3l0,0c0.1,0.1,0.2,0.1,0.3,0.1h50.8   c0.1,0,0.2,0,0.3-0.1l0,0c0.1-0.1,0.1-0.2,0.1-0.3L203.5,355.8L203.5,355.8z" />
	<path
   id="vol-"
   class="button"
   d="M85.7,414.4v-58.6H34v58.6c0,0.1,0,0.2,0.1,0.3l0,0c0.1,0.1,0.2,0.1,0.3,0.1h50.8   c0.1,0,0.2,0,0.3-0.1C85.6,414.6,85.7,414.5,85.7,414.4" />
	<path
   id="power"
   class="button"
   d="M54.2,88.9c6,0,11.3-2.4,15.3-6.3c3.9-3.9,6.3-9.3,6.3-15.3S73.4,56,69.5,52   c-3.9-3.9-9.3-6.3-15.3-6.3S42.9,48.2,39,52.1s-6.3,9.3-6.3,15.3c0,6,2.4,11.3,6.3,15.3S48.3,88.9,54.2,88.9" />
	<path
   id="source"
   class="button"
   d="M157.7,51.3v32.2c0,0.1,0,0.2,0.1,0.3l0,0c0.1,0.1,0.2,0.1,0.3,0.1h43.3c0.1,0,0.2,0,0.3-0.1   s0.1-0.2,0.1-0.3V51.3c0-0.1,0-0.2-0.1-0.3l0,0c-0.1-0.1-0.2-0.1-0.3-0.1h-43.3c-0.1,0-0.2,0-0.3,0.1l0,0   C157.8,51,157.7,51.1,157.7,51.3" />
	<path
   id="right"
   class="button"
   d="M158,547.9c-1.4,0.1-2.5,0.3-3.1,0.8s-1,1.5-1,3.3v18.4c0,1.8,0.3,2.8,1,3.3   c0.6,0.6,1.7,0.8,3.1,0.8c0.4,0,0.8,0,1.2-0.1c0.4,0,0.8,0,1.3,0l41.5-1.7c1,0,1.9-0.4,2.6-1.1c0.6-0.5,0.9-1.3,0.9-2.2V553   c0-0.9-0.4-1.6-0.9-2.2c-0.7-0.7-1.7-1-2.6-1.1l-41.4-1.7c-0.5,0-0.9,0-1.3,0C158.7,547.9,158.3,547.9,158,547.9" />
	<path
   id="down"
   class="button"
   d="M127.8,596.4h-18.4c-0.9,0-1.6,0.1-2.2,0.3c-0.5,0.2-0.9,0.4-1.1,0.6c-0.4,0.4-0.6,0.9-0.8,1.7   c-0.2,0.9-0.3,2.1-0.3,3.7c0,0.6,0.1,1.4,0.1,2.2c0,0.7,0.1,1.6,0.1,2.6c0,1.3,0.1,2.7,0.1,4c0,1.2,0.1,2.4,0.1,3.6l0.8,17.6   c0,1,0.5,1.9,1.1,2.6c0.6,0.6,1.5,1,2.3,1h17.7c0.9,0,1.7-0.4,2.3-1c0.6-0.7,1.1-1.6,1.1-2.6l0.8-17.6c0.1-1.4,0.1-2.7,0.1-4   c0-1.2,0.1-2.5,0.1-3.7c0-1,0.1-1.8,0.1-2.6s0.1-1.6,0.1-2.3c0-1.6-0.1-2.8-0.3-3.7c-0.2-0.8-0.4-1.3-0.8-1.7l0,0   c-0.3-0.3-0.7-0.5-1.1-0.6C129.4,596.5,128.7,596.4,127.8,596.4" />
	<path
   id="tools"
   class="button"
   d="M35.9,516.7h34.8c1.7,0,3.2-0.7,4.3-1.8c1.1-1.1,1.8-2.6,1.8-4.3v-19.4c0-0.9-0.4-1.7-1-2.3l0,0   c-0.6-0.6-1.4-1-2.3-1H35.9c-0.9,0-1.7,0.4-2.3,1s-1,1.4-1,2.3v22.2c0,0.9,0.4,1.7,0.9,2.3C34.2,516.4,35,516.7,35.9,516.7" />
	<path
   id="info"
   class="button"
   d="M157.7,491.3v19.4c0,1.7,0.7,3.2,1.8,4.3c1.1,1.1,2.6,1.8,4.3,1.8h34.8c0.9,0,1.7-0.4,2.3-1   s0.9-1.4,0.9-2.3v-22.2c0-0.9-0.4-1.7-1-2.3c-0.6-0.6-1.4-1-2.3-1H161c-0.9,0-1.7,0.4-2.3,1l0,0   C158.1,489.6,157.7,490.4,157.7,491.3" />
	<path
   id="exit"
   class="button"
   d="M198.6,604.2h-34.8c-1.7,0-3.2,0.7-4.3,1.8s-1.8,2.6-1.8,4.3v19.4c0,0.9,0.4,1.7,1,2.3l0,0   c0.6,0.6,1.4,1,2.3,1h37.6c0.9,0,1.7-0.4,2.3-1s0.9-1.4,0.9-2.3v-22.2c0-0.9-0.4-1.7-1-2.3C200.3,604.6,199.5,604.2,198.6,604.2" />
	<path
   id="return"
   class="button"
   d="M76.8,629.7v-19.4c0-1.7-0.7-3.2-1.8-4.3c-1.1-1.1-2.6-1.8-4.3-1.8H35.9c-0.9,0-1.7,0.4-2.3,1   s-1,1.4-1,2.3v22.2c0,0.9,0.4,1.7,0.9,2.3c0.6,0.6,1.4,1,2.3,1h37.6c0.9,0,1.7-0.4,2.3-1l0,0C76.4,631.4,76.8,630.6,76.8,629.7" />
	<path
   id="menu"
   class="button"
   d="M37.3,464.9h37.6c0.9,0,1.7-0.4,2.3-0.9l0,0c0.6-0.6,0.9-1.4,0.9-2.3v-22.2c0-0.9-0.4-1.7-1-2.3l0,0   c-0.6-0.6-1.4-1-2.3-1H37.3c-0.9,0-1.7,0.4-2.3,1l0,0c-0.6,0.6-1,1.4-1,2.3v22.2c0,0.9,0.4,1.7,1,2.3   C35.6,464.5,36.4,464.9,37.3,464.9" />
	<path
   id="guide"
   class="button"
   d="M159.1,439.4v22.2c0,0.9,0.4,1.7,1,2.3c0.6,0.6,1.4,1,2.3,1H200c0.9,0,1.7-0.4,2.3-0.9l0,0   c0.6-0.6,0.9-1.4,0.9-2.3v-22.2c0-0.9-0.4-1.7-1-2.3l0,0c-0.6-0.6-1.4-1-2.3-1h-37.6c-0.9,0-1.7,0.4-2.3,1l0,0   C159.5,437.7,159.1,438.5,159.1,439.4" />
	<path
   id="mute"
   class="button"
   d="M106.1,339.3h25.2c1.1,0,2.1-0.4,2.8-1.2c0.7-0.7,1.2-1.7,1.2-2.8v-31.4c0-1.1-0.4-2.1-1.2-2.8   c-0.7-0.7-1.7-1.2-2.8-1.2h-25.2c-1.1,0-2.1,0.4-2.8,1.2l0,0c-0.7,0.7-1.2,1.7-1.2,2.8v31.4c0,1.1,0.4,2.1,1.2,2.8l0,0   C103.9,338.9,104.9,339.3,106.1,339.3" />
</g>
<g
   id="g1062">
	<path
   d="M54.2,92.4c13.8,0,25-11.2,25-25s-11.2-25-25-25s-25,11.2-25,25S40.5,92.4,54.2,92.4z M54.2,44.4c12.7,0,23,10.3,23,23   s-10.3,23-23,23s-23-10.3-23-23C31.2,54.7,41.6,44.4,54.2,44.4z"
   id="path974" />
	<path
   d="M158.1,87.3h43.3c2.1,0,3.8-1.7,3.8-3.8V51.3c0-2.1-1.7-3.8-3.8-3.8h-43.3c-2.1,0-3.8,1.7-3.8,3.8v32.2   C154.3,85.6,156,87.3,158.1,87.3z M156.3,51.3c0-1,0.8-1.8,1.8-1.8h43.3c1,0,1.8,0.8,1.8,1.8v32.2c0,1-0.8,1.8-1.8,1.8h-43.3   c-1,0-1.8-0.8-1.8-1.8V51.3z"
   id="path976" />
	<path
   d="M37.3,102.6c-3.7,0-6.7,3-6.7,6.7v22.2c0,3.7,3,6.7,6.7,6.7h37.6c3.7,0,6.7-3,6.7-6.7v-22.2c0-3.7-3-6.7-6.7-6.7   C74.9,102.6,37.3,102.6,37.3,102.6z M79.6,109.3v22.2c0,2.6-2.1,4.7-4.7,4.7H37.3c-2.6,0-4.7-2.1-4.7-4.7v-22.2   c0-2.6,2.1-4.7,4.7-4.7h37.6C77.5,104.6,79.6,106.7,79.6,109.3z"
   id="path978" />
	<path
   d="M99.8,138.2h37.6c3.7,0,6.7-3,6.7-6.7v-22.2c0-3.7-3-6.7-6.7-6.7H99.8c-3.7,0-6.7,3-6.7,6.7v22.2   C93.2,135.2,96.2,138.2,99.8,138.2z M95.2,109.3c0-2.6,2.1-4.7,4.7-4.7h37.6c2.6,0,4.7,2.1,4.7,4.7v22.2c0,2.6-2.1,4.7-4.7,4.7   H99.8c-2.6,0-4.7-2.1-4.7-4.7L95.2,109.3L95.2,109.3z"
   id="path980" />
	<path
   d="M206.6,109.3c0-3.7-3-6.7-6.7-6.7h-37.6c-3.7,0-6.7,3-6.7,6.7v22.2c0,3.7,3,6.7,6.7,6.7H200c3.7,0,6.7-3,6.7-6.7   L206.6,109.3L206.6,109.3z M204.6,131.5c0,2.6-2.1,4.7-4.7,4.7h-37.6c-2.6,0-4.7-2.1-4.7-4.7v-22.2c0-2.6,2.1-4.7,4.7-4.7H200   c2.6,0,4.7,2.1,4.7,4.7L204.6,131.5L204.6,131.5z"
   id="path982" />
	<path
   d="M37.3,184.2h37.6c3.7,0,6.7-3,6.7-6.7v-22.2c0-3.7-3-6.7-6.7-6.7H37.3c-3.7,0-6.7,3-6.7,6.7v22.2   C30.6,181.2,33.6,184.2,37.3,184.2z M32.6,155.3c0-2.6,2.1-4.7,4.7-4.7h37.6c2.6,0,4.7,2.1,4.7,4.7v22.2c0,2.6-2.1,4.7-4.7,4.7   H37.3c-2.6,0-4.7-2.1-4.7-4.7V155.3z"
   id="path984" />
	<path
   d="M99.8,184.2h37.6c3.7,0,6.7-3,6.7-6.7v-22.2c0-3.7-3-6.7-6.7-6.7H99.8c-3.7,0-6.7,3-6.7,6.7v22.2   C93.2,181.2,96.2,184.2,99.8,184.2z M95.2,155.3c0-2.6,2.1-4.7,4.7-4.7h37.6c2.6,0,4.7,2.1,4.7,4.7v22.2c0,2.6-2.1,4.7-4.7,4.7   H99.8c-2.6,0-4.7-2.1-4.7-4.7L95.2,155.3L95.2,155.3z"
   id="path986" />
	<path
   d="M206.6,155.3c0-3.7-3-6.7-6.7-6.7h-37.6c-3.7,0-6.7,3-6.7,6.7v22.2c0,3.7,3,6.7,6.7,6.7H200c3.7,0,6.7-3,6.7-6.7   L206.6,155.3L206.6,155.3z M204.6,177.6c0,2.6-2.1,4.7-4.7,4.7h-37.6c-2.6,0-4.7-2.1-4.7-4.7v-22.2c0-2.6,2.1-4.7,4.7-4.7H200   c2.6,0,4.7,2.1,4.7,4.7L204.6,177.6L204.6,177.6z"
   id="path988" />
	<path
   d="M30.6,223.6c0,3.7,3,6.7,6.7,6.7h37.6c3.7,0,6.7-3,6.7-6.7v-22.2c0-3.7-3-6.7-6.7-6.7H37.3c-3.7,0-6.7,3-6.7,6.7   C30.6,201.4,30.6,223.6,30.6,223.6z M32.6,201.4c0-2.6,2.1-4.7,4.7-4.7h37.6c2.6,0,4.7,2.1,4.7,4.7v22.2c0,2.6-2.1,4.7-4.7,4.7   H37.3c-2.6,0-4.7-2.1-4.7-4.7V201.4z"
   id="path990" />
	<path
   d="M99.8,230.3h37.6c3.7,0,6.7-3,6.7-6.7v-22.2c0-3.7-3-6.7-6.7-6.7H99.8c-3.7,0-6.7,3-6.7,6.7v22.2   C93.2,227.3,96.2,230.3,99.8,230.3z M95.2,201.4c0-2.6,2.1-4.7,4.7-4.7h37.6c2.6,0,4.7,2.1,4.7,4.7v22.2c0,2.6-2.1,4.7-4.7,4.7   H99.8c-2.6,0-4.7-2.1-4.7-4.7L95.2,201.4L95.2,201.4z"
   id="path992" />
	<path
   d="M206.6,201.4c0-3.7-3-6.7-6.7-6.7h-37.6c-3.7,0-6.7,3-6.7,6.7v22.2c0,3.7,3,6.7,6.7,6.7H200c3.7,0,6.7-3,6.7-6.7   L206.6,201.4L206.6,201.4z M204.6,223.6c0,2.6-2.1,4.7-4.7,4.7h-37.6c-2.6,0-4.7-2.1-4.7-4.7v-22.2c0-2.6,2.1-4.7,4.7-4.7H200   c2.6,0,4.7,2.1,4.7,4.7L204.6,223.6L204.6,223.6z"
   id="path994" />
	<path
   d="M30.6,269.3c0,3.7,3,6.7,6.7,6.7h37.6c3.7,0,6.7-3,6.7-6.7v-22.2c0-3.7-3-6.7-6.7-6.7H37.3c-3.7,0-6.7,3-6.7,6.7   C30.6,247.1,30.6,269.3,30.6,269.3z M32.6,247.1c0-2.6,2.1-4.7,4.7-4.7h37.6c2.6,0,4.7,2.1,4.7,4.7v22.2c0,2.6-2.1,4.7-4.7,4.7   H37.3c-2.6,0-4.7-2.1-4.7-4.7V247.1z"
   id="path996" />
	<path
   d="M99.8,276h37.6c3.7,0,6.7-3,6.7-6.7v-22.2c0-3.7-3-6.7-6.7-6.7H99.8c-3.7,0-6.7,3-6.7,6.7v22.2C93.2,273,96.2,276,99.8,276   z M95.2,247.1c0-2.6,2.1-4.7,4.7-4.7h37.6c2.6,0,4.7,2.1,4.7,4.7v22.2c0,2.6-2.1,4.7-4.7,4.7H99.8c-2.6,0-4.7-2.1-4.7-4.7   L95.2,247.1L95.2,247.1z"
   id="path998" />
	<path
   d="M200,240.5h-37.6c-3.7,0-6.7,3-6.7,6.7v22.2c0,3.7,3,6.7,6.7,6.7H200c3.7,0,6.7-3,6.7-6.7v-22.2   C206.6,243.4,203.6,240.5,200,240.5z M204.6,269.3c0,2.6-2.1,4.7-4.7,4.7h-37.6c-2.6,0-4.7-2.1-4.7-4.7v-22.2   c0-2.6,2.1-4.7,4.7-4.7H200c2.6,0,4.7,2.1,4.7,4.7L204.6,269.3L204.6,269.3z"
   id="path1000" />
	<path
   d="M62.4,650.5H33.3c-2.1,0-3.8,1.7-3.8,3.8v20.9c0,2.1,1.7,3.8,3.8,3.8h29.1c2.1,0,3.8-1.7,3.8-3.8v-20.9   C66.2,652.2,64.5,650.5,62.4,650.5z M64.2,675.2c0,1-0.8,1.8-1.8,1.8H33.3c-1,0-1.8-0.8-1.8-1.8v-20.9c0-1,0.8-1.8,1.8-1.8h29.1   c1,0,1.8,0.8,1.8,1.8C64.2,654.3,64.2,675.2,64.2,675.2z"
   id="path1002" />
	<path
   d="M204.3,650.5h-29.1c-2.1,0-3.8,1.7-3.8,3.8v20.9c0,2.1,1.7,3.8,3.8,3.8h29.1c2.1,0,3.8-1.7,3.8-3.8v-20.9   C208.1,652.2,206.4,650.5,204.3,650.5z M206.1,675.2c0,1-0.8,1.8-1.8,1.8h-29.1c-1,0-1.8-0.8-1.8-1.8v-20.9c0-1,0.8-1.8,1.8-1.8   h29.1c1,0,1.8,0.8,1.8,1.8V675.2z"
   id="path1004" />
	<path
   d="M157,650.5h-29.1c-2.1,0-3.8,1.7-3.8,3.8v20.9c0,2.1,1.7,3.8,3.8,3.8H157c2.1,0,3.8-1.7,3.8-3.8v-20.9   C160.8,652.2,159.1,650.5,157,650.5z M158.8,675.2c0,1-0.8,1.8-1.8,1.8h-29.1c-1,0-1.8-0.8-1.8-1.8v-20.9c0-1,0.8-1.8,1.8-1.8H157   c1,0,1.8,0.8,1.8,1.8V675.2z"
   id="path1006" />
	<path
   d="M109.7,650.5H80.6c-2.1,0-3.8,1.7-3.8,3.8v20.9c0,2.1,1.7,3.8,3.8,3.8h29.1c2.1,0,3.8-1.7,3.8-3.8v-20.9   C113.5,652.2,111.8,650.5,109.7,650.5z M111.5,675.2c0,1-0.8,1.8-1.8,1.8H80.6c-1,0-1.8-0.8-1.8-1.8v-20.9c0-1,0.8-1.8,1.8-1.8   h29.1c1,0,1.8,0.8,1.8,1.8V675.2z"
   id="path1008" />
	<path
   d="M62.4,688.6H33.3c-2.1,0-3.8,1.7-3.8,3.8v20.9c0,2.1,1.7,3.8,3.8,3.8h29.1c2.1,0,3.8-1.7,3.8-3.8v-20.9   C66.2,690.3,64.5,688.6,62.4,688.6z M64.2,713.3c0,1-0.8,1.8-1.8,1.8H33.3c-1,0-1.8-0.8-1.8-1.8v-20.9c0-1,0.8-1.8,1.8-1.8h29.1   c1,0,1.8,0.8,1.8,1.8C64.2,692.4,64.2,713.3,64.2,713.3z"
   id="path1010" />
	<path
   d="M62.4,726.7H33.3c-2.1,0-3.8,1.7-3.8,3.8v20.9c0,2.1,1.7,3.8,3.8,3.8h29.1c2.1,0,3.8-1.7,3.8-3.8v-20.9   C66.2,728.5,64.5,726.7,62.4,726.7z M64.2,751.4c0,1-0.8,1.8-1.8,1.8H33.3c-1,0-1.8-0.8-1.8-1.8v-20.9c0-1,0.8-1.8,1.8-1.8h29.1   c1,0,1.8,0.8,1.8,1.8C64.2,730.5,64.2,751.4,64.2,751.4z"
   id="path1012" />
	<path
   d="M204.3,688.6h-29.1c-2.1,0-3.8,1.7-3.8,3.8v20.9c0,2.1,1.7,3.8,3.8,3.8h29.1c2.1,0,3.8-1.7,3.8-3.8v-20.9   C208.1,690.3,206.4,688.6,204.3,688.6z M206.1,713.3c0,1-0.8,1.8-1.8,1.8h-29.1c-1,0-1.8-0.8-1.8-1.8v-20.9c0-1,0.8-1.8,1.8-1.8   h29.1c1,0,1.8,0.8,1.8,1.8V713.3z"
   id="path1014" />
	<path
   d="M157,688.6h-29.1c-2.1,0-3.8,1.7-3.8,3.8v20.9c0,2.1,1.7,3.8,3.8,3.8H157c2.1,0,3.8-1.7,3.8-3.8v-20.9   C160.8,690.3,159.1,688.6,157,688.6z M158.8,713.3c0,1-0.8,1.8-1.8,1.8h-29.1c-1,0-1.8-0.8-1.8-1.8v-20.9c0-1,0.8-1.8,1.8-1.8H157   c1,0,1.8,0.8,1.8,1.8V713.3z"
   id="path1016" />
	<path
   d="M109.7,688.6H80.6c-2.1,0-3.8,1.7-3.8,3.8v20.9c0,2.1,1.7,3.8,3.8,3.8h29.1c2.1,0,3.8-1.7,3.8-3.8v-20.9   C113.5,690.3,111.8,688.6,109.7,688.6z M111.5,713.3c0,1-0.8,1.8-1.8,1.8H80.6c-1,0-1.8-0.8-1.8-1.8v-20.9c0-1,0.8-1.8,1.8-1.8   h29.1c1,0,1.8,0.8,1.8,1.8V713.3z"
   id="path1018" />
	<path
   d="M204.3,726.7h-29.1c-2.1,0-3.8,1.7-3.8,3.8v20.9c0,2.1,1.7,3.8,3.8,3.8h29.1c2.1,0,3.8-1.7,3.8-3.8v-20.9   C208.1,728.5,206.4,726.7,204.3,726.7z M206.1,751.4c0,1-0.8,1.8-1.8,1.8h-29.1c-1,0-1.8-0.8-1.8-1.8v-20.9c0-1,0.8-1.8,1.8-1.8   h29.1c1,0,1.8,0.8,1.8,1.8V751.4z"
   id="path1020" />
	<path
   d="M157,726.7h-29.1c-2.1,0-3.8,1.7-3.8,3.8v20.9c0,2.1,1.7,3.8,3.8,3.8H157c2.1,0,3.8-1.7,3.8-3.8v-20.9   C160.8,728.5,159.1,726.7,157,726.7z M158.8,751.4c0,1-0.8,1.8-1.8,1.8h-29.1c-1,0-1.8-0.8-1.8-1.8v-20.9c0-1,0.8-1.8,1.8-1.8H157   c1,0,1.8,0.8,1.8,1.8V751.4z"
   id="path1022" />
	<path
   d="M109.7,726.7H80.6c-2.1,0-3.8,1.7-3.8,3.8v20.9c0,2.1,1.7,3.8,3.8,3.8h29.1c2.1,0,3.8-1.7,3.8-3.8v-20.9   C113.5,728.5,111.8,726.7,109.7,726.7z M111.5,751.4c0,1-0.8,1.8-1.8,1.8H80.6c-1,0-1.8-0.8-1.8-1.8v-20.9c0-1,0.8-1.8,1.8-1.8   h29.1c1,0,1.8,0.8,1.8,1.8V751.4z"
   id="path1024" />
	<path
   d="M37.3,432.7c-3.7,0-6.7,3-6.7,6.7v22.2c0,3.7,3,6.7,6.7,6.7h37.6c3.7,0,6.7-3,6.7-6.7v-22.2c0-3.7-3-6.7-6.7-6.7H37.3z    M79.6,439.4v22.2c0,2.6-2.1,4.7-4.7,4.7H37.3c-2.6,0-4.7-2.1-4.7-4.7v-22.2c0-2.6,2.1-4.7,4.7-4.7h37.6   C77.5,434.7,79.6,436.8,79.6,439.4z"
   id="path1026" />
	<path
   d="M96,427.8v31.9c0,4.6,3.7,8.3,8.3,8.3h28.6c4.6,0,8.3-3.7,8.3-8.3v-31.9c0-4.6-3.7-8.3-8.3-8.3h-28.6   C99.7,419.5,96,423.2,96,427.8z M104.3,421.5h28.6c3.5,0,6.3,2.8,6.3,6.3v31.9c0,3.5-2.8,6.3-6.3,6.3h-28.6c-3.5,0-6.3-2.8-6.3-6.3   v-31.9C98,424.3,100.8,421.5,104.3,421.5z"
   id="path1028" />
	<path
   d="M206.6,439.4c0-3.7-3-6.7-6.7-6.7h-37.6c-3.7,0-6.7,3-6.7,6.7v22.2c0,3.7,3,6.7,6.7,6.7H200c3.7,0,6.7-3,6.7-6.7   L206.6,439.4L206.6,439.4z M204.6,461.6c0,2.6-2.1,4.7-4.7,4.7h-37.6c-2.6,0-4.7-2.1-4.7-4.7v-22.2c0-2.6,2.1-4.7,4.7-4.7H200   c2.6,0,4.7,2.1,4.7,4.7L204.6,461.6L204.6,461.6z"
   id="path1030" />
	<path
   d="M35.9,520.2h34.8c5.2,0,9.5-4.3,9.5-9.5v-19.4c0-3.7-3-6.7-6.7-6.7H35.9c-3.7,0-6.7,3-6.7,6.7v22.2   C29.2,517.2,32.2,520.2,35.9,520.2z M31.2,491.3c0-2.6,2.1-4.7,4.7-4.7h37.6c2.6,0,4.7,2.1,4.7,4.7v19.4c0,4.1-3.4,7.5-7.5,7.5   H35.9c-2.6,0-4.7-2.1-4.7-4.7V491.3z"
   id="path1032" />
	<path
   d="M198.6,484.6H161c-3.7,0-6.7,3-6.7,6.7v19.4c0,5.2,4.3,9.5,9.5,9.5h34.8c3.7,0,6.7-3,6.7-6.7v-22.2   C205.2,487.6,202.2,484.6,198.6,484.6z M203.2,513.5c0,2.6-2.1,4.7-4.7,4.7h-34.8c-4.1,0-7.5-3.4-7.5-7.5v-19.4   c0-2.6,2.1-4.7,4.7-4.7h37.6c2.6,0,4.7,2.1,4.7,4.7V513.5z"
   id="path1034" />
	<path
   d="M30.6,294.3v120.1c0,2.1,1.7,3.8,3.8,3.8h50.8c2.1,0,3.8-1.7,3.8-3.8V294.3c0-2.1-1.7-3.8-3.8-3.8H34.5   C32.4,290.5,30.6,292.2,30.6,294.3z M87.1,294.3v120.1c0,1-0.8,1.8-1.8,1.8H34.5c-1,0-1.8-0.8-1.8-1.8V294.3c0-1,0.8-1.8,1.8-1.8   h50.8C86.3,292.5,87.1,293.3,87.1,294.3z"
   id="path1036" />
	<path
   d="M152.3,418.2h50.8c2.1,0,3.8-1.7,3.8-3.8V294.3c0-2.1-1.7-3.8-3.8-3.8h-50.8c-2.1,0-3.8,1.7-3.8,3.8v120.1   C148.5,416.5,150.2,418.2,152.3,418.2z M150.5,294.3c0-1,0.8-1.8,1.8-1.8h50.8c1,0,1.8,0.8,1.8,1.8v120.1c0,1-0.8,1.8-1.8,1.8   h-50.8c-1,0-1.8-0.8-1.8-1.8V294.3z"
   id="path1038" />
	<path
   d="M106.1,342.8h25.2c4.1,0,7.4-3.3,7.4-7.4V304c0-4.1-3.3-7.4-7.4-7.4h-25.2c-4.1,0-7.4,3.3-7.4,7.4v31.4   C98.6,339.4,102,342.8,106.1,342.8z M100.6,303.9c0-3,2.4-5.4,5.4-5.4h25.2c3,0,5.4,2.4,5.4,5.4v31.4c0,3-2.4,5.4-5.4,5.4H106   c-3,0-5.4-2.4-5.4-5.4V303.9z"
   id="path1040" />
	<path
   d="M98.6,394.1c0,4.1,3.3,7.4,7.4,7.4h25.2c4.1,0,7.4-3.3,7.4-7.4v-31.4c0-4.1-3.3-7.4-7.4-7.4H106c-4.1,0-7.4,3.3-7.4,7.4   V394.1z M100.6,362.7c0-3,2.4-5.4,5.4-5.4h25.2c3,0,5.4,2.4,5.4,5.4v31.4c0,3-2.4,5.4-5.4,5.4H106c-3,0-5.4-2.4-5.4-5.4V362.7z"
   id="path1042" />
	<path
   d="M80.2,629.7v-19.4c0-5.2-4.3-9.5-9.5-9.5H35.9c-3.7,0-6.7,3-6.7,6.7v22.2c0,3.7,3,6.7,6.7,6.7h37.6   C77.2,636.4,80.2,633.4,80.2,629.7z M78.2,629.7c0,2.6-2.1,4.7-4.7,4.7H35.9c-2.6,0-4.7-2.1-4.7-4.7v-22.2c0-2.6,2.1-4.7,4.7-4.7   h34.8c4.1,0,7.5,3.4,7.5,7.5V629.7z"
   id="path1044" />
	<path
   d="M205.2,629.7v-22.2c0-3.7-3-6.7-6.7-6.7h-34.8c-5.2,0-9.5,4.3-9.5,9.5v19.4c0,3.7,3,6.7,6.7,6.7h37.6   C202.2,636.4,205.2,633.4,205.2,629.7z M156.3,629.7v-19.4c0-4.1,3.4-7.5,7.5-7.5h34.8c2.6,0,4.7,2.1,4.7,4.7v22.2   c0,2.6-2.1,4.7-4.7,4.7H161C158.4,634.4,156.3,632.3,156.3,629.7z"
   id="path1046" />
	<path
   d="M206.6,0H30.9C13.9,0,0,13.9,0,30.9v831.4c0,17,13.9,30.9,30.9,30.9h175.7c17,0,30.9-13.9,30.9-30.9V30.9   C237.5,13.9,223.7,0,206.6,0z M144.7,4c-5.9,2.6-12.1,4.3-18.5,5c-0.3-0.1-0.7-0.2-1-0.4c-0.2-0.1-0.5-0.2-0.7-0.3   c-0.4-0.1-0.8-0.2-1.2-0.3c-0.2-0.1-0.5-0.1-0.7-0.2c-0.4-0.1-0.9-0.1-1.3-0.2c-0.2,0-0.4-0.1-0.5-0.1c-1.3-0.1-2.6-0.1-3.8,0   c-0.2,0-0.3,0.1-0.5,0.1c-0.5,0.1-0.9,0.1-1.4,0.2c-0.2,0-0.4,0.1-0.6,0.2c-0.4,0.1-0.8,0.2-1.2,0.3c-0.2,0.1-0.5,0.2-0.7,0.3   c-0.3,0.1-0.7,0.2-1,0.4C105,8.3,98.8,6.6,92.9,4H144.7z M4,862.3V30.9c0-8.2,3.7-15.5,9.4-20.4c-1.7,2.9-2.8,6.3-2.8,10v852.3   c0,3.6,1,7,2.8,10C7.7,877.8,4,870.4,4,862.3z M217.8,886.7c-3.4,1.6-7.2,2.4-11.2,2.4H30.9c-4,0-7.8-0.9-11.2-2.4   c-4.3-3.2-7.1-8.3-7.1-14V20.4c0-5.7,2.8-10.8,7.1-14C23.1,4.9,26.9,4,30.9,4h59.6c6.1,2.9,12.5,4.8,19.2,5.8h-0.1l1.9,0.2h0.1l0,0   c2.4,0.3,4.8,0.4,7.2,0.4c2.4,0,4.8-0.1,7.2-0.4l0,0h0.1l1.9-0.2h-0.1c6.7-0.9,13.1-2.9,19.2-5.8h59.6c4,0,7.8,0.9,11.2,2.4   c4.3,3.2,7.1,8.3,7.1,14v852.3C224.9,878.5,222.1,883.6,217.8,886.7z M233.5,862.3c0,8.2-3.7,15.5-9.4,20.4c1.7-2.9,2.8-6.3,2.8-10   V20.4c0-3.6-1-7-2.8-10c5.8,4.9,9.4,12.3,9.4,20.4V862.3z"
   id="path1048" />
	<path
   d="M202.3,540.6l-41.5-1.7c-7.4-0.2-14.7-1.4-17.6-8.8c-0.4-1-0.7-2.2-1-3.5c-1-5.1-1.2-10.5-1.3-15.8c0-1.3-0.1-2.7-0.1-4   l-0.8-17.6c-0.3-6.9-5.8-12.3-12.5-12.3h-17.7c-6.7,0-12.2,5.4-12.5,12.3l-0.8,17.6c-0.1,1.3-0.1,2.7-0.1,4   c-0.2,5.3-0.4,10.7-1.3,15.8c-0.3,1.3-0.6,2.4-0.9,3.5c-2.9,7.4-10.2,8.6-17.6,8.9l-41.5,1.7c-6.9,0.3-12.3,5.7-12.3,12.3v16.4   c0,6.6,5.4,12.1,12.3,12.3l41.5,1.7c7.4,0.2,14.7,1.4,17.6,8.8c0.4,1.1,0.7,2.2,1,3.5c1,5.1,1.2,10.5,1.3,15.8c0,1.3,0.1,2.7,0.1,4   l0.8,17.6c0.3,6.9,5.8,12.3,12.5,12.3h17.7c6.7,0,12.2-5.4,12.5-12.3l0.8-17.6c0.1-1.3,0.1-2.7,0.1-4c0.2-5.3,0.4-10.7,1.3-15.8   c0.3-1.3,0.6-2.4,0.9-3.5c2.9-7.4,10.2-8.6,17.6-8.9l41.5-1.7c6.9-0.3,12.3-5.7,12.3-12.3V553C214.6,546.3,209.2,540.9,202.3,540.6   z M212.6,569.4c0,5.6-4.6,10.1-10.4,10.3l-41.5,1.7c-7.7,0.2-16.1,1.6-19.4,10.1c-0.4,1.2-0.8,2.4-1,3.8l0,0   c-1,5.2-1.2,10.8-1.4,16.1c0,1.3-0.1,2.7-0.1,4L138,633c-0.2,5.8-4.9,10.4-10.5,10.4h-17.7c-5.7,0-10.3-4.6-10.5-10.4l-0.8-17.6   c-0.1-1.3-0.1-2.6-0.1-4c-0.2-5.4-0.4-10.9-1.4-16.1c-0.3-1.4-0.6-2.6-1-3.8c-3.4-8.5-11.7-9.9-19.4-10.1L35,579.7   c-5.8-0.2-10.4-4.8-10.4-10.3V553c0-5.6,4.6-10.1,10.4-10.3l41.5-1.7c7.7-0.2,16.1-1.6,19.4-10.1c0.4-1.2,0.8-2.4,1-3.8   c1-5.2,1.2-10.8,1.4-16.1c0-1.3,0.1-2.7,0.1-4l0.8-17.6c0.2-5.8,4.9-10.4,10.5-10.4h17.7c5.7,0,10.3,4.6,10.5,10.4l0.8,17.6   c0.1,1.3,0.1,2.6,0.1,4c0.2,5.4,0.4,10.9,1.4,16.1c0.3,1.4,0.6,2.6,1,3.8c3.4,8.5,11.7,9.9,19.4,10.1l41.5,1.7   c5.8,0.2,10.4,4.8,10.4,10.3v16.4H212.6z"
   id="path1050" />
	<path
   d="M79.3,544.5L79.3,544.5L79.3,544.5c-0.9,0.1-1.8,0.1-2.6,0.1l-41.5,1.7c-3.8,0.2-6.9,3.1-6.9,6.7v16.4c0,3.6,3,6.5,6.9,6.7   l41.4,1.7c0.9,0,1.7,0.1,2.6,0.1h0.1h0.1c3.5-0.1,7.5-1.1,7.5-7.5V552C86.8,545.6,82.8,544.6,79.3,544.5z M84.8,570.4   c0,4.4-2,5.4-5.5,5.5c-0.9-0.1-1.7-0.1-2.6-0.1l-41.4-1.7c-2.4-0.1-4.9-1.9-4.9-4.7V553c0-2.8,2.5-4.6,4.9-4.7l41.5-1.7   c0.9,0,1.7-0.1,2.5-0.1c3.5,0.2,5.5,1.1,5.5,5.5V570.4z"
   id="path1052" />
	<path
   d="M109.4,529.4h18.4c2.6,0,4.5-0.6,5.8-1.9c1.9-1.9,2.1-5.1,2-8c-0.1-1.4-0.2-2.9-0.3-4.8c0-1.2-0.1-2.4-0.1-3.6   c0-1.3-0.1-2.7-0.1-4l-0.8-17.6c-0.2-3.8-3.2-6.9-6.9-6.9h-17.7c-3.6,0-6.7,3.1-6.9,6.9l-0.8,17.6c-0.1,1.3-0.1,2.7-0.1,4   c0,1.2-0.1,2.4-0.1,3.6c-0.1,1.8-0.2,3.3-0.3,4.7v0.1c-0.1,2.8,0.1,6,2,7.9C104.9,528.7,106.8,529.4,109.4,529.4z M103.6,519.5   c0.1-1.4,0.2-2.9,0.3-4.8c0-1.2,0.1-2.4,0.1-3.6c0-1.3,0.1-2.7,0.1-4l0.8-17.6c0.1-2.7,2.3-5,4.9-5h17.7c2.6,0,4.7,2.2,4.9,5   l0.8,17.6c0.1,1.3,0.1,2.6,0.1,4c0,1.2,0.1,2.4,0.1,3.6c0.1,1.9,0.2,3.4,0.3,4.8c0.1,3.4-0.4,5.4-1.5,6.5c-0.9,0.9-2.3,1.3-4.4,1.3   h-18.4c-2,0-3.5-0.4-4.4-1.3C104,524.9,103.6,523,103.6,519.5z"
   id="path1054" />
	<path
   d="M202.1,546.3l-41.4-1.7c-0.9,0-1.7-0.1-2.6-0.1H158h-0.1c-3.5,0.1-7.5,1.1-7.5,7.5v18.4c0,6.4,4,7.4,7.5,7.5h0.1h0.1   c0.8-0.1,1.7-0.1,2.5-0.1l41.5-1.7c3.8-0.2,6.9-3.1,6.9-6.7V553C208.9,549.4,205.9,546.5,202.1,546.3z M206.9,569.4   c0,2.8-2.5,4.6-4.9,4.7l-41.5,1.7c-0.9,0-1.7,0.1-2.5,0.1c-3.5-0.2-5.5-1.1-5.5-5.5V552c0-4.4,2-5.4,5.5-5.5   c0.9,0.1,1.7,0.1,2.6,0.1l41.4,1.7c2.4,0.1,4.9,1.9,4.9,4.7V569.4z"
   id="path1056" />
	<path
   d="M131,541.7h-24.5c-4,0-7.3,3.3-7.3,7.3v23.4c0,4.6,3.8,8.4,8.4,8.4H131c4,0,7.3-3.3,7.3-7.3V549   C138.3,544.9,135,541.7,131,541.7z M131,578.7h-23.4c-3.5,0-6.4-2.9-6.4-6.4v-23.4c0-2.9,2.4-5.3,5.3-5.3H131   c2.9,0,5.3,2.4,5.3,5.3v24.5C136.3,576.4,133.9,578.7,131,578.7z"
   id="path1058" />
	<path
   d="M128,593h-18.4c-2.6,0-4.5,0.6-5.8,1.9c-1.9,1.9-2.1,5.1-2,8c0.1,1.4,0.2,2.9,0.3,4.7c0,1.2,0.1,2.4,0.1,3.6   c0,1.3,0.1,2.7,0.1,4l0.8,17.6c0.2,3.8,3.2,6.9,6.9,6.9h17.7c3.6,0,6.7-3.1,6.9-6.9l0.8-17.6c0.1-1.3,0.1-2.7,0.1-4   c0-1.2,0.1-2.4,0.1-3.6c0.1-1.8,0.2-3.3,0.3-4.7v-0.1c0.1-2.8-0.1-6-2-7.9C132.5,593.7,130.6,593,128,593z M133.5,607.6   c0,1.2-0.1,2.4-0.1,3.6c0,1.3-0.1,2.7-0.1,4l-0.8,17.6c-0.1,2.7-2.3,5-4.9,5h-17.7c-2.6,0-4.7-2.2-4.9-5l-0.8-17.6   c-0.1-1.3-0.1-2.7-0.1-4c0-1.2-0.1-2.4-0.1-3.6c-0.1-1.8-0.2-3.4-0.3-4.7c-0.1-3.4,0.4-5.4,1.5-6.5c0.9-0.9,2.3-1.3,4.4-1.3H128   c2,0,3.5,0.4,4.4,1.3c1.1,1.1,1.5,3.1,1.5,6.5C133.7,604.3,133.6,605.8,133.5,607.6z"
   id="path1060" />
</g>
<g
   id="g1316">
	<path
   d="M170.4,348.3v17.2h5.3v-6.4h2.9c2.1,0,3.7-0.5,4.8-1.5c1-1,1.6-2.3,1.6-4.1c0-1.7-0.5-3-1.4-3.9c-1-0.9-2.4-1.4-4.3-1.4   L170.4,348.3L170.4,348.3z M179.8,353.8c0,0.6-0.2,1-0.6,1.4c-0.4,0.4-1.1,0.5-2.2,0.5h-1.3v-3.8h1.5c1,0,1.7,0.2,2,0.6   C179.6,352.8,179.8,353.2,179.8,353.8z"
   id="path1064" />
	<path
   d="M165.2,328.3l12.5-8.9l12.5,8.9c0.5,0.4,1.1,0.5,1.6,0.5c0.9,0,1.8-0.4,2.3-1.2c0.9-1.3,0.6-3-0.7-4l-14.1-10   c-1-0.7-2.3-0.7-3.3,0l-14.1,10c-1.3,0.9-1.6,2.7-0.7,4C162.2,328.9,163.9,329.2,165.2,328.3z"
   id="path1066" />
	<path
   d="M177.7,401.1c0.6,0,1.2-0.2,1.6-0.5l14.1-10c1.3-0.9,1.6-2.7,0.7-4c-0.9-1.3-2.7-1.6-4-0.7l-12.5,8.9l-12.5-8.9   c-1.3-0.9-3-0.6-4,0.7c-0.9,1.3-0.6,3,0.7,4l14.1,10C176.5,401,177.1,401.1,177.7,401.1z"
   id="path1068" />
	<polygon
   points="62.7,341.1 62.7,329.4 74.4,329.4 74.4,323.7 62.7,323.7 62.7,312 57,312 57,323.7 45.3,323.7 45.3,329.4   57,329.4 57,341.1  "
   id="polygon1070" />
	<rect
   x="45.3"
   y="390.5"
   width="29.1"
   height="5.7"
   id="rect1072" />
	<polygon
   points="76.2,362.2 76.2,351.3 43.6,362.2  "
   id="polygon1074" />
	<path
   d="M181,505.1l-3.3,0.5l-0.2,0.8c0.1,0,0.3,0,0.4,0c0.2,0,0.4,0.1,0.5,0.2s0.2,0.2,0.2,0.4c0,0.2-0.1,0.5-0.2,1l-1.3,4   c-0.1,0.4-0.2,0.6-0.2,0.9c0,0.3,0.1,0.6,0.4,0.8c0.2,0.2,0.6,0.3,1,0.3c1.1,0,2.1-0.8,3-2.5l-0.7-0.4c-0.4,0.6-1,0.9-1,0.7l2-6.5   H181V505.1z"
   id="path1076" />
	<path
   d="M182.1,502.2c0-0.4-0.1-0.7-0.4-1c-0.3-0.3-0.6-0.4-1-0.4s-0.7,0.1-1,0.4s-0.4,0.6-0.4,1s0.1,0.7,0.4,1   c0.3,0.3,0.6,0.4,1,0.4s0.7-0.1,1-0.4C182,502.9,182.1,502.5,182.1,502.2z"
   id="path1078" />
	<path
   d="M54.2,81.9c3.9,0,7.5-1.5,10.3-4.3c2.7-2.7,4.3-6.4,4.3-10.3s-1.5-7.5-4.3-10.3c-1.5-1.5-3.4-2.7-5.4-3.4L58,57   c1.5,0.5,2.9,1.4,4,2.6c2.1,2.1,3.2,4.9,3.2,7.8s-1.1,5.7-3.2,7.8s-4.9,3.2-7.8,3.2c-2.9,0-5.7-1.1-7.8-3.2s-3.2-4.9-3.2-7.8   s1.1-5.7,3.2-7.8c1.1-1.1,2.5-2,4-2.6l-1.1-3.3c-2,0.7-3.9,1.9-5.4,3.4c-2.7,2.7-4.3,6.4-4.3,10.3s1.5,7.5,4.3,10.3   S50.4,81.9,54.2,81.9z"
   id="path1080" />
	<rect
   x="52.5"
   y="49.7"
   width="3.5"
   height="16.3"
   id="rect1082" />
	<path
   d="M103.7,740.6c-4.5-2.3-9.1-4.5-13.6-6.8c-0.5-0.3-0.8-0.3-0.8,0.5l0,0v4.2v4.5v0.1v0.1v0.1v0.1v0.1v0.1v0.1v0.1v0.1v0.1   v0.1v0.1v0.1v0.1v0.1v0.1v0.1v0.1v0.1v0.1v0.1v0.1v0.1v0.1v0.1v0.1v0.1v0.1v0.1v0.1v0.1v0.1v0.1v0.1v0.1v0.1v0.1v0.1v0.1v0.1v0.1   v0.1v0.1v1.5c0,0.7,0.3,0.9,0.9,0.5c4.8-2.4,9.1-4.5,13.6-6.8C104.4,741.1,104.4,741,103.7,740.6z"
   id="path1084" />
	<path
   d="M200.1,740.7c-3.9-1.9-7.8-3.9-11.7-5.8c-0.5-0.2-0.7-0.3-0.7,0.5l0,0v3.6v0.5c-3.1-1.5-6.2-3.1-9.2-4.6   c-0.5-0.2-0.7-0.3-0.7,0.5l0,0v3.6v3.9v0.1v0.1v0.1v0.1v0.1v0.1v0.1v0.1v0.1v0.1v0.1v0.1v0.1v0.1v0.1v0.1v0.1v0.1v0.1v0.1v0.1v0.1   v0.1v0.1v0.1v0.1v0.1v0.1v0.1v0.1v0.1v0.1v0.1v0.1v0.1v0.1v0.1v0.1v0.1v0.1v0.1v0.1v0.1v1.3c0,0.6,0.2,0.7,0.8,0.5   c3.2-1.6,6.1-3.1,9.1-4.6v0.2v0.1v0.1v0.1v0.1v0.1v0.1v0.1v0.1v0.1v0.1v0.1v0.1v0.1v0.1v0.1v0.1v0.1v0.1v0.1v0.1v0.1v0.1v0.1v0.1   v0.1v0.1v0.1v0.1v0.1v0.1v0.1v0.1v0.1v0.1v0.1v0.1v0.1v0.1v0.1v0.1v0.1v0.1v0.1v1.3c0,0.6,0.2,0.7,0.8,0.5   c4.1-2.1,7.8-3.9,11.7-5.8C200.7,741.1,200.7,741,200.1,740.7z"
   id="path1086" />
	<path
   d="M58.9,734.8c-3.1,1.5-6.2,3.1-9.2,4.6v-0.5v-3.6l0,0c0-0.7-0.2-0.7-0.7-0.5c-3.9,1.9-7.8,3.9-11.7,5.8   c-0.6,0.3-0.5,0.4-0.1,0.6c3.9,1.9,7.6,3.8,11.7,5.8c0.6,0.3,0.8,0.2,0.8-0.5v-1.3v-0.1V745v-0.1v-0.1v-0.1v-0.1v0.4v-0.1v-0.1   v-0.1v-0.1v-0.1v-0.1v-0.1v-0.1v-0.1V744v-0.1v-0.1v-0.1v-0.1v-0.1v0.5l0,0v-0.1v-0.1v-0.1v-0.1v-0.1v-0.1v-0.1v-0.1v-0.1V743v-0.1   v-0.1v-0.1v-0.1v-0.1v0.5v-0.1v-0.1v-0.1v-0.2c3,1.5,5.9,3,9.1,4.6c0.6,0.3,0.8,0.2,0.8-0.5v-1.3v-0.1v-0.1V745v-0.1v-0.1v-0.1v0.3   v-0.1v-0.1v-0.1v-0.1v-0.1v-0.1v-0.1v-0.1v-0.1V744v-0.1v-0.1v-0.1v-0.1v-0.1v0.5l0,0v-0.1v-0.1v-0.1v-0.1v-0.1v-0.1v-0.1v-0.1   v-0.1V743v-0.1v-0.1v-0.1v-0.1v-0.1v0.5v-0.1v-0.1v-0.1v-3.9v-3.6l0,0C59.6,734.6,59.4,734.6,58.9,734.8z"
   id="path1088" />
	<path
   d="M59.6,630.8c0.8-0.6,1.5-1.4,1.9-2.3c0.5-0.9,0.8-1.9,0.9-2.9c0.1-1,0-2-0.3-3s-0.8-1.9-1.4-2.7c-0.6-0.8-1.4-1.5-2.3-1.9   s-1.9-0.8-2.9-0.9c-1-0.1-2,0-3,0.3s-1.9,0.8-2.7,1.4c-0.3,0.3-0.6,0.5-0.9,0.9l-1-0.6l0,0c-0.3-0.2-0.4-0.1-0.4,0.2l-0.5,4.4   c-0.1,0.3-0.1,0.6-0.1,1l-0.2,1.7c0,0.3,0,0.4,0.3,0.2c2-1.2,4-2.4,6-3.6c0.3-0.2,0.3-0.3,0-0.5l-0.6-0.4l0,0l0,0l0,0l0,0l0,0l0,0   l0,0l0,0l0,0l0,0l0,0l0,0l0,0l0,0l0,0l0,0l0,0l0,0l0,0l0,0l0,0l0,0l0,0l0,0l0,0l0,0l0,0l0,0l0,0l0,0l0,0l0,0l0,0l0,0l0,0l0,0l0,0   l0,0l0,0l0,0l0,0l0,0c0.1-0.1,0.2-0.1,0.2-0.2c0.5-0.4,1.1-0.7,1.7-0.9c0.6-0.2,1.3-0.2,1.9-0.2c0.6,0.1,1.3,0.3,1.8,0.6   c0.6,0.3,1.1,0.7,1.5,1.2s0.7,1.1,0.9,1.7c0.2,0.6,0.2,1.3,0.2,1.9c-0.1,0.6-0.3,1.3-0.6,1.8c-0.6,1.1-1.6,2-2.9,2.3   c-0.6,0.2-1.3,0.2-1.9,0.2c-0.6-0.1-1.3-0.3-1.8-0.6c-0.3-0.2-0.7-0.4-0.9-0.7c-0.3-0.3-0.5-0.5-0.7-0.9l-0.2-0.3l-2.3,1.6l0.2,0.3   c0.3,0.5,0.7,0.9,1.2,1.3c0.4,0.4,0.9,0.8,1.5,1c0.9,0.5,1.9,0.8,2.9,0.9c1,0.1,2,0,3-0.3C57.9,631.9,58.8,631.5,59.6,630.8z"
   id="path1090" />
	<path
   d="M180.8,628.7h1v3.7l6.5-3.7v-10.8h-7.5h-3.7v5.3c-1-0.5-2-1-2.9-1.5c-0.1-0.1-0.2-0.1-0.2,0.1l0,0v0.7h-2.8v1.4h2.8l0,0   l0,0l0,0l0,0l0,0l0,0l0,0l0,0l0,0l0,0l0,0l0,0l0,0l0,0l0,0l0,0l0,0l0,0l0,0l0,0l0,0l0,0l0,0l0,0l0,0l0,0l0,0l0,0l0,0v0.3   c0,0.2,0.1,0.2,0.2,0.1c1-0.5,1.9-1,2.9-1.5v5.2h3.7V628.7z M178.8,619.7h1.9h4.3l-3.3,1.9v5.3h-1h-1.9V619.7z"
   id="path1092" />
	<path
   d="M183.8,698.6v8.5c0,0.9,0.8,1.7,1.7,1.7h8.4c0.9,0,1.7-0.8,1.7-1.7v-8.5c0-0.9-0.8-1.7-1.7-1.7h-8.4   C184.6,696.9,183.8,697.7,183.8,698.6z"
   id="path1094" />
	<path
   d="M147.4,735h-3.5c-0.5,0-0.9,0.4-0.9,0.9V746c0,0.5,0.4,0.9,0.9,0.9h3.5c0.5,0,0.9-0.4,0.9-0.9v-10.1   C148.3,735.4,147.9,735,147.4,735z"
   id="path1096" />
	<path
   d="M140.9,735h-3.5c-0.5,0-0.9,0.4-0.9,0.9V746c0,0.5,0.4,0.9,0.9,0.9h3.5c0.5,0,0.9-0.4,0.9-0.9v-10.1   C141.8,735.4,141.4,735,140.9,735z"
   id="path1098" />
	<path
   d="M192.7,68.6c0-2-1.6-3.5-3.5-3.5h-16.7c-2,0-3.5,1.6-3.5,3.5v3.9h-3.6v1.6h3.6V78c0,2,1.6,3.5,3.5,3.5h16.7   c2,0,3.5-1.6,3.5-3.5V68.6z M191.3,78c0,1.2-1,2.1-2.1,2.1h-16.7c-1.2,0-2.1-1-2.1-2.1v-3.9h5.2c0,0.7-0.1,1.7-0.1,2.4   c0,0.3,0.1,0.4,0.4,0.2c2.2-1.1,4.2-2.1,6.2-3.1c0.2-0.1,0.3-0.2,0-0.3c-2.1-1-4.2-2.1-6.3-3.1c-0.2-0.1-0.4-0.1-0.4,0.3v2.1h-5.1   v-3.9c0-1.2,1-2.1,2.1-2.1h16.7c1.2,0,2.1,1,2.1,2.1V78H191.3z"
   id="path1100" />
	<path
   d="M163.6,61.1c0.9,0,1.7-0.2,2.2-0.6c0.5-0.4,0.8-1.1,0.8-2c0-0.3,0-0.5-0.1-0.7c0-0.2-0.1-0.4-0.3-0.6   c-0.1-0.2-0.3-0.3-0.5-0.5s-0.5-0.3-0.8-0.4l-1.3-0.6c-0.4-0.2-0.6-0.3-0.7-0.5c-0.1-0.2-0.2-0.4-0.2-0.7c0-0.1,0-0.3,0-0.4   c0-0.1,0.1-0.2,0.2-0.3c0.1-0.1,0.2-0.2,0.3-0.2c0.1-0.1,0.3-0.1,0.5-0.1c0.3,0,0.6,0.1,0.7,0.3c0.1,0.2,0.2,0.5,0.2,0.9h1.7v-0.2   c0-0.4-0.1-0.8-0.2-1s-0.3-0.5-0.6-0.7c-0.2-0.2-0.5-0.3-0.8-0.4c-0.3-0.1-0.7-0.1-1.1-0.1c-0.8,0-1.5,0.2-1.9,0.6   c-0.5,0.4-0.7,1-0.7,1.9c0,0.4,0,0.7,0.1,0.9c0.1,0.3,0.2,0.5,0.4,0.7s0.4,0.4,0.7,0.5c0.3,0.2,0.6,0.3,1,0.4   c0.3,0.1,0.5,0.2,0.7,0.3s0.4,0.2,0.5,0.3s0.2,0.2,0.3,0.4c0.1,0.1,0.1,0.3,0.1,0.5c0,0.4-0.1,0.6-0.3,0.8s-0.5,0.3-0.7,0.3   s-0.4,0-0.6-0.1c-0.1-0.1-0.3-0.2-0.4-0.3c-0.1-0.1-0.1-0.2-0.2-0.4s0-0.3,0-0.5v-0.3h-1.7v0.3c0,0.8,0.2,1.4,0.6,1.8   S162.6,61.1,163.6,61.1z"
   id="path1102" />
	<path
   d="M167.7,59.9c0.2,0.4,0.5,0.7,0.9,0.9s0.9,0.3,1.5,0.3s1.2-0.1,1.5-0.3s0.7-0.5,0.9-0.9s0.3-0.9,0.4-1.4   c0.1-0.5,0.1-1.1,0.1-1.8c0-0.6,0-1.2-0.1-1.8c-0.1-0.5-0.2-1-0.4-1.4s-0.5-0.7-0.9-0.9s-0.9-0.3-1.5-0.3s-1.2,0.1-1.5,0.3   c-0.4,0.2-0.7,0.5-0.9,0.9s-0.3,0.9-0.4,1.4s-0.1,1.1-0.1,1.8s0,1.3,0.1,1.8C167.4,59,167.5,59.5,167.7,59.9z M169,55.2   c0-0.4,0.1-0.7,0.2-1s0.2-0.4,0.4-0.6s0.4-0.2,0.6-0.2s0.5,0.1,0.6,0.2c0.2,0.1,0.3,0.3,0.4,0.6s0.1,0.6,0.2,1c0,0.4,0,0.9,0,1.5   s0,1.1,0,1.5s-0.1,0.7-0.2,1s-0.2,0.4-0.4,0.6c-0.2,0.1-0.4,0.2-0.6,0.2s-0.5-0.1-0.6-0.2c-0.2-0.1-0.3-0.3-0.4-0.6s-0.1-0.6-0.2-1   c0-0.4,0-0.9,0-1.5S169,55.6,169,55.2z"
   id="path1104" />
	<path
   d="M174.8,60.6c0.3,0.2,0.5,0.3,0.9,0.4c0.3,0.1,0.7,0.1,1,0.1c0.4,0,0.7,0,1-0.1s0.6-0.2,0.9-0.4c0.3-0.2,0.5-0.5,0.6-0.8   c0.2-0.4,0.2-0.8,0.2-1.3v-6h-1.7v6c0,0.2,0,0.4,0,0.6c0,0.2-0.1,0.3-0.2,0.5c-0.1,0.1-0.2,0.2-0.3,0.3s-0.3,0.1-0.5,0.1   s-0.4,0-0.5-0.1s-0.2-0.2-0.3-0.3s-0.1-0.3-0.2-0.5s0-0.4,0-0.6v-6H174v6c0,0.6,0.1,1,0.2,1.4C174.4,60.1,174.6,60.4,174.8,60.6z"
   id="path1106" />
	<path
   d="M182.3,57.3h0.9c0.4,0,0.6,0.1,0.8,0.3s0.2,0.5,0.3,0.8V60c0,0.2,0,0.3,0,0.5s0.1,0.3,0.2,0.4h1.9v-0.1   c-0.2-0.1-0.3-0.3-0.3-0.5s-0.1-0.6-0.1-1c0-0.2,0-0.4,0-0.6c0-0.2,0-0.4,0-0.5c0-0.5-0.2-0.8-0.4-1s-0.5-0.4-0.9-0.4l0,0   c0.5-0.1,0.8-0.3,1.1-0.7c0.2-0.4,0.3-0.8,0.3-1.4c0-0.7-0.2-1.3-0.6-1.7c-0.4-0.4-1-0.5-1.7-0.5h-3.2V61h1.7V57.3z M182.3,53.7   h0.8c0.8,0,1.2,0.4,1.2,1.2c0,0.5-0.1,0.8-0.3,1s-0.5,0.3-1,0.3h-0.7V53.7z"
   id="path1108" />
	<path
   d="M187.5,59.9c0.2,0.4,0.5,0.7,0.9,0.9s0.9,0.3,1.5,0.3s1-0.1,1.4-0.3s0.6-0.4,0.8-0.7s0.3-0.7,0.4-1.1   c0.1-0.4,0.1-0.9,0.1-1.3h-1.7c0,0.5,0,0.8-0.1,1.1s-0.1,0.5-0.2,0.7c-0.1,0.2-0.2,0.3-0.3,0.3c-0.1,0.1-0.3,0.1-0.4,0.1   c-0.2,0-0.3,0-0.5-0.1s-0.3-0.2-0.3-0.4c-0.1-0.2-0.2-0.5-0.2-0.9s-0.1-0.9-0.1-1.6c0-0.6,0-1.1,0-1.5s0.1-0.8,0.2-1   c0.1-0.3,0.2-0.4,0.3-0.6c0.1-0.1,0.3-0.2,0.5-0.2c0.4,0,0.7,0.1,0.8,0.4c0.1,0.3,0.2,0.7,0.2,1.4h1.7c0-0.3,0-0.6-0.1-1   c0-0.4-0.2-0.7-0.3-1c-0.2-0.3-0.4-0.6-0.8-0.8c-0.4-0.2-0.8-0.3-1.5-0.3c-0.6,0-1.2,0.1-1.5,0.3c-0.4,0.2-0.7,0.5-0.9,0.9   s-0.3,0.9-0.4,1.4s0,1.1,0,1.8s0,1.3,0.1,1.8C187.2,59,187.3,59.5,187.5,59.9z"
   id="path1110" />
	<polygon
   points="198.6,59.6 195.4,59.6 195.4,57.3 198.3,57.3 198.3,55.8 195.4,55.8 195.4,53.8 198.4,53.8 198.4,52.4 193.7,52.4   193.7,61 198.6,61  "
   id="polygon1112" />
	<path
   d="M123.1,336.5c0.6,0.4,0.7-0.1,0.7-0.4v-9.5v-0.1v-0.8l-6.6,6.8L123.1,336.5z"
   id="path1114" />
	<path
   d="M109.3,322.9v3.7v0.1v3.7c0,0.5,0.3,1.2,1.1,1.2h1.7l11.8-12.2V317c0-0.3-0.1-0.8-0.7-0.4l-7.4,5H115h-4.7   C109.6,321.7,109.3,322.4,109.3,322.9z"
   id="path1116" />
	<path
   d="M111,335.8c0.5,0.5,1.4,0.5,1.9,0l15.4-15.9c0.5-0.5,0.5-1.4,0-1.9s-1.4-0.5-1.9,0L111,333.9   C110.4,334.5,110.4,335.3,111,335.8z"
   id="path1118" />
	<polygon
   points="176.5,607.1 176.5,605.6 171.7,605.6 171.7,614.2 176.6,614.2 176.6,612.8 173.5,612.8 173.5,610.5 176.3,610.5   176.3,609.1 173.5,609.1 173.5,607.1  "
   id="polygon1120" />
	<polygon
   points="178.9,614.2 180.1,611.3 181.3,614.2 183.3,614.2 181.1,609.9 183.1,605.6 181.2,605.6 180.2,608.4 179.1,605.6   177.1,605.6 179.1,609.9 177,614.2  "
   id="polygon1122" />
	<rect
   x="184"
   y="605.6"
   width="1.7"
   height="8.6"
   id="rect1124" />
	<polygon
   points="190.2,614.2 190.2,607.1 192.1,607.1 192.1,605.6 186.6,605.6 186.6,607.1 188.5,607.1 188.5,614.2  "
   id="polygon1126" />
	<path
   d="M37.5,610.2h0.9c0.4,0,0.6,0.1,0.8,0.3s0.2,0.5,0.3,0.8v1.6c0,0.2,0,0.3,0,0.5s0.1,0.3,0.2,0.4h1.9v-0.1   c-0.2-0.1-0.3-0.3-0.3-0.5s-0.1-0.6-0.1-1c0-0.2,0-0.4,0-0.6c0-0.2,0-0.4,0-0.5c0-0.5-0.2-0.8-0.4-1s-0.5-0.4-0.9-0.4l0,0   c0.5-0.1,0.8-0.3,1.1-0.7c0.2-0.4,0.3-0.8,0.3-1.4c0-0.7-0.2-1.3-0.6-1.7c-0.4-0.4-1-0.5-1.7-0.5h-3.2v8.6h1.7V610.2z M37.5,606.5   h0.8c0.8,0,1.2,0.4,1.2,1.2c0,0.5-0.1,0.8-0.3,1s-0.5,0.3-1,0.3h-0.7V606.5z"
   id="path1128" />
	<polygon
   points="47.2,606.7 47.2,605.3 42.4,605.3 42.4,613.8 47.3,613.8 47.3,612.4 44.1,612.4 44.1,610.1 47,610.1 47,608.7   44.1,608.7 44.1,606.7  "
   id="polygon1130" />
	<polygon
   points="51.3,613.8 51.3,606.7 53.2,606.7 53.2,605.3 47.7,605.3 47.7,606.7 49.6,606.7 49.6,613.8  "
   id="polygon1132" />
	<path
   d="M53.8,605.3v6c0,0.6,0.1,1,0.2,1.4c0.2,0.4,0.4,0.6,0.6,0.8c0.3,0.2,0.5,0.3,0.9,0.4c0.3,0.1,0.7,0.1,1,0.1   c0.4,0,0.7,0,1-0.1s0.6-0.2,0.9-0.4c0.3-0.2,0.5-0.5,0.6-0.8c0.2-0.4,0.2-0.8,0.2-1.3v-6h-1.7v6c0,0.2,0,0.4,0,0.6   c0,0.2-0.1,0.3-0.2,0.5c-0.1,0.1-0.2,0.2-0.3,0.3s-0.3,0.1-0.5,0.1s-0.4,0-0.5-0.1s-0.2-0.2-0.3-0.3s-0.1-0.3-0.2-0.5s0-0.4,0-0.6   v-6h-1.7V605.3z"
   id="path1134" />
	<path
   d="M65.9,613.3c0-0.2-0.1-0.6-0.1-1c0-0.2,0-0.4,0-0.6c0-0.2,0-0.4,0-0.5c0-0.5-0.2-0.8-0.4-1s-0.5-0.4-0.9-0.4l0,0   c0.5-0.1,0.8-0.3,1.1-0.7c0.2-0.4,0.3-0.8,0.3-1.4c0-0.7-0.2-1.3-0.6-1.7s-1-0.5-1.7-0.5h-3.2v8.6h1.7v-3.6H63   c0.4,0,0.6,0.1,0.8,0.3s0.2,0.5,0.3,0.8v1.6c0,0.2,0,0.3,0,0.5s0.1,0.3,0.2,0.4h1.9V614C66,613.7,65.9,613.5,65.9,613.3z    M63.8,608.7c-0.2,0.2-0.5,0.3-1,0.3h-0.7v-2.5h0.8c0.8,0,1.2,0.4,1.2,1.2C64.1,608.2,64,608.5,63.8,608.7z"
   id="path1136" />
	<polygon
   points="71.2,611.1 71.1,611.1 69.1,605.3 67.1,605.3 67.1,613.8 68.6,613.8 68.6,607.8 68.7,607.8 70.8,613.8 72.8,613.8   72.8,605.3 71.2,605.3  "
   id="polygon1138" />
	<path
   d="M134.9,702.8c-0.1-0.2-0.3-0.3-0.5-0.5s-0.5-0.3-0.8-0.4l-1.3-0.6c-0.4-0.2-0.6-0.3-0.7-0.5c-0.1-0.2-0.2-0.4-0.2-0.7   c0-0.1,0-0.3,0-0.4c0-0.1,0.1-0.2,0.2-0.3s0.2-0.2,0.3-0.2c0.1-0.1,0.3-0.1,0.5-0.1c0.3,0,0.6,0.1,0.7,0.3c0.1,0.2,0.2,0.5,0.2,0.9   h1.7v-0.2c0-0.4-0.1-0.8-0.2-1c-0.1-0.3-0.3-0.5-0.6-0.7c-0.2-0.2-0.5-0.3-0.8-0.4s-0.7-0.1-1.1-0.1c-0.8,0-1.5,0.2-1.9,0.6   s-0.7,1-0.7,1.9c0,0.4,0,0.7,0.1,0.9c0.1,0.3,0.2,0.5,0.4,0.7s0.4,0.4,0.7,0.5s0.6,0.3,1,0.4c0.3,0.1,0.5,0.2,0.7,0.3   s0.4,0.2,0.5,0.3s0.2,0.2,0.3,0.4c0.1,0.1,0.1,0.3,0.1,0.5c0,0.4-0.1,0.6-0.3,0.8s-0.5,0.3-0.7,0.3s-0.4,0-0.6-0.1   c-0.1-0.1-0.3-0.2-0.4-0.3s-0.1-0.2-0.2-0.4c0-0.2,0-0.3,0-0.5v-0.3h-1.7v0.3c0,0.8,0.2,1.4,0.6,1.8s1.1,0.6,2.1,0.6   c0.9,0,1.7-0.2,2.2-0.6c0.5-0.4,0.8-1.1,0.8-2c0-0.3,0-0.5-0.1-0.7C135.1,703.2,135,703,134.9,702.8z"
   id="path1140" />
	<path
   d="M137.7,706.6c0.3,0.1,0.7,0.1,1,0.1c0.4,0,0.7,0,1-0.1s0.6-0.2,0.9-0.4c0.3-0.2,0.5-0.5,0.6-0.8c0.2-0.4,0.2-0.8,0.2-1.3   v-6h-1.7v6c0,0.2,0,0.4,0,0.6s-0.1,0.3-0.2,0.5s-0.2,0.2-0.3,0.3s-0.3,0.1-0.5,0.1s-0.4,0-0.5-0.1s-0.2-0.2-0.3-0.3   s-0.1-0.3-0.2-0.5c0-0.2,0-0.4,0-0.6v-6H136v6c0,0.6,0.1,1,0.2,1.4c0.2,0.4,0.4,0.6,0.6,0.8C137.1,706.4,137.4,706.5,137.7,706.6z"
   id="path1142" />
	<path
   d="M146.7,706.4c0.3-0.1,0.6-0.3,0.8-0.5s0.4-0.5,0.5-0.8s0.1-0.6,0.1-1c0-0.6-0.1-1-0.4-1.4c-0.3-0.3-0.7-0.5-1.1-0.6l0,0   c0.4-0.1,0.8-0.3,1-0.7s0.3-0.7,0.3-1.2c0-0.4-0.1-0.8-0.2-1c-0.1-0.3-0.3-0.5-0.5-0.7s-0.5-0.3-0.8-0.4c-0.3-0.1-0.6-0.1-1-0.1   h-2.9v8.6h2.9C146,706.6,146.4,706.5,146.7,706.4z M144.3,699.3h0.6c0.4,0,0.7,0.1,0.9,0.3s0.3,0.5,0.3,0.9s-0.1,0.7-0.3,0.9   s-0.6,0.3-1,0.3h-0.5V699.3z M144.3,705.3v-2.6h0.7c0.2,0,0.4,0,0.5,0.1c0.2,0,0.3,0.1,0.4,0.2c0.1,0.1,0.2,0.2,0.3,0.4   s0.1,0.4,0.1,0.6c0,0.5-0.1,0.8-0.4,1c-0.3,0.2-0.6,0.3-1,0.3H144.3z"
   id="path1144" />
	<polygon
   points="154.2,698 148.8,698 148.8,699.4 150.6,699.4 150.6,706.6 152.4,706.6 152.4,699.4 154.2,699.4  "
   id="polygon1146" />
	<rect
   x="153.9"
   y="704.7"
   width="1.6"
   height="1.9"
   id="rect1148" />
	<path
   d="M49.5,657.6h-3.3l-3.5,13.2h2.8l0.6-2.8h3.5l0.6,2.8H53L49.5,657.6z M46.6,665.8l1.3-5.9l0,0l1.3,5.9H46.6z"
   id="path1150" />
	<path
   d="M97.4,670.4c0.5-0.2,0.9-0.5,1.3-0.8s0.6-0.8,0.7-1.2s0.2-1,0.2-1.5c0-0.9-0.2-1.6-0.6-2.1s-1-0.8-1.8-0.9l0,0   c0.7-0.2,1.2-0.5,1.5-1s0.5-1.1,0.5-1.8c0-0.6-0.1-1.2-0.3-1.6s-0.4-0.8-0.8-1c-0.3-0.3-0.7-0.4-1.2-0.6c-0.5-0.1-1-0.2-1.5-0.2   h-4.5v13.2h4.5C96.2,670.8,96.8,670.7,97.4,670.4z M93.6,659.5h1c0.7,0,1.2,0.1,1.5,0.4s0.5,0.7,0.5,1.3s-0.2,1.1-0.5,1.3   c-0.3,0.3-0.9,0.4-1.6,0.4h-0.8L93.6,659.5L93.6,659.5z M93.6,668.8v-4h1.1c0.3,0,0.6,0,0.8,0.1c0.2,0.1,0.5,0.2,0.6,0.3   c0.2,0.2,0.3,0.4,0.4,0.6c0.1,0.3,0.2,0.6,0.2,1c0,0.8-0.2,1.3-0.6,1.6s-0.9,0.4-1.6,0.4L93.6,668.8L93.6,668.8z"
   id="path1152" />
	<path
   d="M138.8,669.1c0.3,0.6,0.8,1.1,1.4,1.4s1.4,0.5,2.4,0.5c0.9,0,1.6-0.1,2.1-0.4c0.5-0.3,1-0.6,1.3-1.1s0.5-1,0.6-1.7   c0.1-0.6,0.2-1.3,0.2-2h-2.7c0,0.7,0,1.3-0.1,1.7s-0.2,0.8-0.4,1c-0.1,0.2-0.3,0.4-0.5,0.5s-0.4,0.1-0.7,0.1s-0.5-0.1-0.7-0.2   s-0.4-0.3-0.5-0.7c-0.1-0.3-0.2-0.8-0.3-1.4c-0.1-0.6-0.1-1.4-0.1-2.4c0-0.9,0-1.7,0.1-2.4c0-0.6,0.1-1.2,0.3-1.6   c0.1-0.4,0.3-0.7,0.5-0.9s0.5-0.3,0.8-0.3c0.6,0,1,0.2,1.2,0.7c0.2,0.4,0.3,1.1,0.3,2.1h2.7c0-0.5,0-1-0.1-1.5s-0.2-1.1-0.5-1.5   s-0.7-0.9-1.2-1.2s-1.3-0.5-2.2-0.5c-1,0-1.8,0.2-2.4,0.5c-0.6,0.3-1,0.8-1.4,1.4c-0.3,0.6-0.5,1.3-0.6,2.2s-0.1,1.8-0.1,2.8   s0,1.9,0.1,2.8C138.3,667.8,138.5,668.5,138.8,669.1z"
   id="path1154" />
	<path
   d="M186.2,670.8h4.2c0.9,0,1.6-0.1,2.2-0.4c0.6-0.3,1-0.7,1.4-1.2c0.3-0.6,0.6-1.3,0.7-2.1c0.1-0.9,0.2-1.9,0.2-3   c0-1-0.1-1.9-0.2-2.6s-0.3-1.5-0.6-2c-0.3-0.6-0.8-1-1.3-1.3s-1.3-0.5-2.2-0.5h-4.4L186.2,670.8L186.2,670.8z M188.9,659.5h1.1   c0.5,0,0.9,0.1,1.2,0.3s0.5,0.5,0.7,0.9s0.3,0.8,0.3,1.4c0,0.6,0.1,1.2,0.1,2c0,0.9,0,1.7-0.1,2.3s-0.2,1.1-0.3,1.5   s-0.4,0.6-0.7,0.8s-0.7,0.2-1.1,0.2h-1.2V659.5z"
   id="path1156" />
	<path
   d="M190.4,560.8c-7-2.4-14-4.9-20.9-7.3c-0.8-0.3-1.2-0.3-1.2,0.6l0,0v4.5v9.7c0,0.8,0.4,0.9,1.4,0.6   c7.3-2.6,13.9-4.9,20.9-7.3C191.4,561.3,191.5,561.2,190.4,560.8z"
   id="path1158" />
	<path
   d="M68.9,568.3L68.9,568.3v-4.5v-9.7c0-0.8-0.4-0.9-1.4-0.6c-7.3,2.6-13.9,4.9-20.9,7.3c-0.8,0.3-0.8,0.4,0.2,0.8   c7,2.4,14,4.9,20.9,7.3C68.6,569.2,68.9,569.2,68.9,568.3z"
   id="path1160" />
	<path
   d="M111.7,516.3L111.7,516.3h4.5h9.7c0.8,0,0.9-0.4,0.6-1.4c-2.6-7.3-4.9-13.9-7.3-20.9c-0.3-0.8-0.4-0.8-0.8,0.2   c-2.4,7-4.9,14-7.3,20.9C110.8,515.9,110.7,516.3,111.7,516.3z"
   id="path1162" />
	<path
   d="M125.6,606.1L125.6,606.1h-4.5h-9.7c-0.8,0-0.9,0.4-0.6,1.4c2.6,7.3,4.9,13.9,7.3,20.9c0.3,0.8,0.4,0.8,0.8-0.2   c2.4-7,4.9-14,7.3-20.9C126.5,606.4,126.5,606.1,125.6,606.1z"
   id="path1164" />
	<rect
   x="169.9"
   y="489.6"
   width="1.7"
   height="8.6"
   id="rect1166" />
	<polygon
   points="174.5,492.2 174.5,492.2 176.6,498.2 178.6,498.2 178.6,489.6 177,489.6 177,495.5 177,495.5 174.9,489.6   172.9,489.6 172.9,498.2 174.5,498.2  "
   id="polygon1168" />
	<polygon
   points="184.6,491 184.6,489.6 179.8,489.6 179.8,498.2 181.5,498.2 181.5,494.5 184.4,494.5 184.4,493 181.5,493   181.5,491  "
   id="polygon1170" />
	<path
   d="M189.6,489.8c-0.4-0.2-0.9-0.3-1.5-0.3s-1.2,0.1-1.5,0.3c-0.4,0.2-0.7,0.5-0.9,0.9s-0.3,0.9-0.4,1.4s-0.1,1.1-0.1,1.8   c0,0.7,0,1.3,0.1,1.8s0.2,1,0.4,1.4s0.5,0.7,0.9,0.9c0.4,0.2,0.9,0.3,1.5,0.3s1.2-0.1,1.5-0.3s0.7-0.5,0.9-0.9s0.3-0.9,0.4-1.4   c0.1-0.5,0.1-1.1,0.1-1.8c0-0.6,0-1.2-0.1-1.8c-0.1-0.5-0.2-1-0.4-1.4S190,490,189.6,489.8z M189.2,495.4c0,0.4-0.1,0.7-0.2,1   s-0.2,0.4-0.4,0.6c-0.2,0.1-0.4,0.2-0.6,0.2s-0.5-0.1-0.6-0.2c-0.2-0.1-0.3-0.3-0.4-0.6s-0.1-0.6-0.2-1c0-0.4,0-0.9,0-1.5   s0-1.1,0-1.5s0.1-0.7,0.2-1s0.2-0.4,0.4-0.6c0.2-0.1,0.4-0.2,0.6-0.2s0.5,0.1,0.6,0.2c0.2,0.1,0.3,0.3,0.4,0.6s0.1,0.6,0.2,1   c0,0.4,0,0.9,0,1.5S189.3,495,189.2,495.4z"
   id="path1172" />
	<polygon
   points="42.7,497.8 42.7,490.6 44.6,490.6 44.6,489.2 39.1,489.2 39.1,490.6 41,490.6 41,497.8  "
   id="polygon1174" />
	<path
   d="M49.6,489.4c-0.4-0.2-0.9-0.3-1.5-0.3s-1.2,0.1-1.5,0.3c-0.4,0.2-0.7,0.5-0.9,0.9s-0.3,0.9-0.4,1.4   c-0.1,0.5-0.1,1.1-0.1,1.8c0,0.7,0,1.3,0.1,1.8s0.2,1,0.4,1.4s0.5,0.7,0.9,0.9s0.9,0.3,1.5,0.3s1.2-0.1,1.5-0.3   c0.4-0.2,0.7-0.5,0.9-0.9s0.3-0.9,0.4-1.4c0.1-0.5,0.1-1.1,0.1-1.8c0-0.6,0-1.2-0.1-1.8c-0.1-0.5-0.2-1-0.4-1.4   S50,489.6,49.6,489.4z M49.2,495c0,0.4-0.1,0.7-0.2,1s-0.2,0.4-0.4,0.6c-0.2,0.1-0.4,0.2-0.6,0.2s-0.5-0.1-0.6-0.2   c-0.2-0.1-0.3-0.3-0.4-0.6s-0.1-0.6-0.2-1c0-0.4,0-0.9,0-1.5s0-1.1,0-1.5s0.1-0.7,0.2-1s0.2-0.4,0.4-0.6c0.2-0.1,0.4-0.2,0.6-0.2   s0.5,0.1,0.6,0.2c0.2,0.1,0.3,0.3,0.4,0.6s0.1,0.6,0.2,1c0,0.4,0,0.9,0,1.5S49.3,494.6,49.2,495z"
   id="path1176" />
	<path
   d="M57.2,490.3c-0.2-0.4-0.5-0.7-0.9-0.9c-0.4-0.2-0.9-0.3-1.5-0.3s-1.2,0.1-1.5,0.3c-0.4,0.2-0.7,0.5-0.9,0.9   s-0.3,0.9-0.4,1.4s-0.1,1.1-0.1,1.8c0,0.7,0,1.3,0.1,1.8s0.2,1,0.4,1.4s0.5,0.7,0.9,0.9c0.4,0.2,0.9,0.3,1.5,0.3s1.2-0.1,1.5-0.3   s0.7-0.5,0.9-0.9s0.3-0.9,0.4-1.4c0.1-0.5,0.1-1.1,0.1-1.8c0-0.6,0-1.2-0.1-1.8C57.5,491.2,57.4,490.7,57.2,490.3z M55.9,495   c0,0.4-0.1,0.7-0.2,1s-0.2,0.4-0.4,0.6c-0.2,0.1-0.4,0.2-0.6,0.2s-0.5-0.1-0.6-0.2c-0.2-0.1-0.3-0.3-0.4-0.6s-0.1-0.6-0.2-1   c0-0.4,0-0.9,0-1.5s0-1.1,0-1.5s0.1-0.7,0.2-1s0.2-0.4,0.4-0.6c0.2-0.1,0.4-0.2,0.6-0.2s0.5,0.1,0.6,0.2c0.2,0.1,0.3,0.3,0.4,0.6   s0.1,0.6,0.2,1c0,0.4,0,0.9,0,1.5S55.9,494.6,55.9,495z"
   id="path1178" />
	<polygon
   points="58.7,489.2 58.7,497.8 63.5,497.8 63.5,496.4 60.4,496.4 60.4,489.2  "
   id="polygon1180" />
	<path
   d="M66,490.6c0.1-0.1,0.2-0.2,0.3-0.2c0.1-0.1,0.3-0.1,0.5-0.1c0.3,0,0.6,0.1,0.7,0.3c0.1,0.2,0.2,0.5,0.2,0.9h1.7v-0.2   c0-0.4-0.1-0.8-0.2-1s-0.3-0.5-0.6-0.7c-0.2-0.2-0.5-0.3-0.8-0.4s-0.7-0.1-1.1-0.1c-0.8,0-1.5,0.2-1.9,0.6c-0.5,0.4-0.7,1-0.7,1.9   c0,0.4,0,0.7,0.1,0.9c0.1,0.3,0.2,0.5,0.4,0.7c0.2,0.2,0.4,0.4,0.7,0.5c0.3,0.2,0.6,0.3,1,0.4c0.3,0.1,0.5,0.2,0.7,0.3   c0.2,0.1,0.4,0.2,0.5,0.3c0.1,0.1,0.2,0.2,0.3,0.4c0.1,0.1,0.1,0.3,0.1,0.5c0,0.4-0.1,0.6-0.3,0.8c-0.2,0.2-0.5,0.3-0.7,0.3   s-0.4,0-0.6-0.1c-0.1-0.1-0.3-0.2-0.4-0.3c-0.1-0.1-0.1-0.2-0.2-0.4s0-0.3,0-0.5v-0.3H64v0.3c0,0.8,0.2,1.4,0.6,1.8   s1.1,0.6,2.1,0.6c0.9,0,1.7-0.2,2.2-0.6s0.8-1.1,0.8-2c0-0.3,0-0.5-0.1-0.7c0-0.2-0.1-0.4-0.3-0.6c-0.1-0.2-0.3-0.3-0.5-0.5   s-0.5-0.3-0.8-0.4l-1.3-0.6c-0.4-0.2-0.6-0.3-0.7-0.5s-0.2-0.4-0.2-0.7c0-0.1,0-0.3,0-0.4S65.9,490.7,66,490.6z"
   id="path1182" />
	<polygon
   points="41,446.8 41,446.8 43,455.5 44.7,455.5 46.7,446.8 46.7,446.8 46.7,455.5 48.7,455.5 48.7,444.5 45.4,444.5   43.9,452.3 43.8,452.3 42.3,444.5 39,444.5 39,455.5 41,455.5  "
   id="polygon1184" />
	<polygon
   points="56.4,446.4 56.4,444.5 50.3,444.5 50.3,455.5 56.6,455.5 56.6,453.7 52.5,453.7 52.5,450.8 56.2,450.8 56.2,448.9   52.5,448.9 52.5,446.4  "
   id="polygon1186" />
	<polygon
   points="63,452.1 62.9,452.1 60.3,444.5 57.7,444.5 57.7,455.5 59.7,455.5 59.7,447.8 59.8,447.8 62.5,455.5 65,455.5   65,444.5 63,444.5  "
   id="polygon1188" />
	<path
   d="M71.2,452.2c0,0.3,0,0.5-0.1,0.8c0,0.2-0.1,0.4-0.2,0.6s-0.2,0.3-0.4,0.4s-0.4,0.1-0.6,0.1c-0.3,0-0.5,0-0.6-0.1   c-0.2-0.1-0.3-0.2-0.4-0.4c-0.1-0.2-0.2-0.4-0.2-0.6s-0.1-0.5-0.1-0.8v-7.7h-2.2v7.7c0,0.7,0.1,1.3,0.3,1.8   c0.2,0.5,0.5,0.8,0.8,1.1c0.3,0.3,0.7,0.4,1.1,0.5s0.9,0.1,1.3,0.1c0.5,0,0.9,0,1.3-0.1s0.8-0.3,1.1-0.5c0.3-0.3,0.6-0.6,0.8-1.1   c0.2-0.5,0.3-1,0.3-1.7v-7.7h-2.2L71.2,452.2L71.2,452.2z"
   id="path1190" />
	<path
   d="M168.9,454.5L168.9,454.5v1h1.6v-5.9h-3.6v1.6h1.5v1.1c0,0.3,0,0.6-0.1,0.8s-0.2,0.4-0.3,0.5s-0.3,0.3-0.4,0.3   c-0.2,0.1-0.3,0.1-0.4,0.1c-0.3,0-0.6-0.1-0.8-0.3c-0.2-0.2-0.4-0.5-0.5-0.9s-0.2-0.8-0.2-1.4c0-0.5-0.1-1.1-0.1-1.8   c0-1.4,0.1-2.4,0.4-3c0.2-0.6,0.6-0.9,1.2-0.9c0.2,0,0.4,0.1,0.6,0.2c0.2,0.1,0.3,0.3,0.4,0.4s0.2,0.4,0.2,0.6s0.1,0.4,0.1,0.6h2.1   c0-1.1-0.3-2-0.8-2.6s-1.4-0.9-2.6-0.9c-0.7,0-1.3,0.1-1.8,0.4c-0.5,0.2-0.9,0.6-1.1,1.1c-0.3,0.5-0.5,1-0.6,1.7s-0.2,1.5-0.2,2.4   c0,1,0,1.8,0.1,2.5s0.2,1.3,0.5,1.8c0.2,0.5,0.6,0.9,1,1.1s1,0.4,1.7,0.4c0.5,0,1-0.1,1.3-0.3C168.3,455.2,168.6,454.9,168.9,454.5   z"
   id="path1192" />
	<path
   d="M171.8,444.5v7.7c0,0.7,0.1,1.3,0.3,1.8s0.5,0.8,0.8,1.1c0.3,0.3,0.7,0.4,1.1,0.5s0.9,0.1,1.3,0.1c0.5,0,0.9,0,1.3-0.1   c0.4-0.1,0.8-0.3,1.1-0.5c0.3-0.3,0.6-0.6,0.8-1.1s0.3-1,0.3-1.7v-7.7h-2.2v7.7c0,0.3,0,0.5-0.1,0.8c0,0.2-0.1,0.4-0.2,0.6   c-0.1,0.2-0.2,0.3-0.4,0.4s-0.4,0.1-0.6,0.1c-0.3,0-0.5,0-0.6-0.1c-0.2-0.1-0.3-0.2-0.4-0.4c-0.1-0.2-0.2-0.4-0.2-0.6   s-0.1-0.5-0.1-0.8v-7.7L171.8,444.5L171.8,444.5z"
   id="path1194" />
	<rect
   x="180.4"
   y="444.5"
   width="2.2"
   height="11"
   id="rect1196" />
	<path
   d="M191.6,449.8c0-0.8,0-1.5-0.1-2.2s-0.3-1.2-0.5-1.7s-0.6-0.8-1.1-1.1s-1.1-0.4-1.9-0.4h-3.6v11h3.5c0.7,0,1.3-0.1,1.8-0.3   s0.9-0.6,1.2-1s0.5-1,0.6-1.8C191.5,451.6,191.6,450.8,191.6,449.8z M189.3,451.8c0,0.5-0.1,0.9-0.3,1.2c-0.1,0.3-0.3,0.5-0.6,0.7   c-0.2,0.1-0.5,0.2-0.9,0.2h-1v-7.7h0.9c0.4,0,0.8,0.1,1,0.2c0.3,0.2,0.4,0.4,0.6,0.7c0.1,0.3,0.2,0.7,0.3,1.2c0,0.5,0.1,1,0.1,1.6   C189.4,450.6,189.4,451.3,189.3,451.8z"
   id="path1198" />
	<polygon
   points="199.2,446.3 199.2,444.5 193.1,444.5 193.1,455.5 199.4,455.5 199.4,453.7 195.3,453.7 195.3,450.7 199,450.7   199,448.9 195.3,448.9 195.3,446.3  "
   id="polygon1200" />
	<path
   d="M52.5,514.4l1.4-1.3l0.8,1c0.2,0.2,0.3,0.2,0.4-0.1c0.8-1.8,1.4-3.4,2.2-5.1c0.1-0.2,0.1-0.2-0.2-0.2   c-1.8,0.5-3.6,0.9-5.4,1.4c-0.2,0.1-0.3,0.1-0.1,0.3l0,0l0.8,0.9l-1.4,1.3L52.5,514.4z"
   id="path1202" />
	<polygon
   points="50.5,508.7 52.5,508.7 52.5,504.4 59.7,504.4 59.7,513.5 56.6,513.5 56.5,513.4 56.5,515.5 61.7,515.5 61.7,502.4   50.5,502.4  "
   id="polygon1204" />
	<rect
   x="53.3"
   y="505.7"
   width="5.7"
   height="1"
   id="rect1206" />
	<path
   d="M116.4,374.6c0.6,0,1-0.1,1.4-0.3c0.4-0.2,0.6-0.4,0.8-0.7c0.2-0.3,0.3-0.7,0.4-1.1s0.1-0.9,0.1-1.3h-1.7   c0,0.5,0,0.8-0.1,1.1c-0.1,0.3-0.1,0.5-0.2,0.7s-0.2,0.3-0.3,0.3c-0.1,0.1-0.3,0.1-0.4,0.1c-0.2,0-0.3,0-0.5-0.1   c-0.1-0.1-0.3-0.2-0.3-0.4c-0.1-0.2-0.2-0.5-0.2-0.9s-0.1-0.9-0.1-1.6c0-0.6,0-1.1,0-1.5s0.1-0.8,0.2-1c0.1-0.3,0.2-0.4,0.3-0.6   c0.1-0.1,0.3-0.2,0.5-0.2c0.4,0,0.7,0.1,0.8,0.4s0.2,0.7,0.2,1.4h1.7c0-0.3,0-0.6-0.1-1c0-0.4-0.2-0.7-0.3-1   c-0.2-0.3-0.4-0.6-0.8-0.8c-0.4-0.2-0.8-0.3-1.5-0.3c-0.6,0-1.2,0.1-1.5,0.3c-0.4,0.2-0.7,0.5-0.9,0.9c-0.2,0.4-0.3,0.9-0.4,1.4   s-0.1,1.1-0.1,1.8c0,0.7,0,1.3,0.1,1.8s0.2,1,0.4,1.4c0.2,0.4,0.5,0.7,0.9,0.9S115.7,374.6,116.4,374.6z"
   id="path1208" />
	<polygon
   points="123.8,369.2 121.8,369.2 121.8,365.9 120.1,365.9 120.1,374.5 121.8,374.5 121.8,370.7 123.8,370.7 123.8,374.5   125.5,374.5 125.5,365.9 123.8,365.9  "
   id="polygon1210" />
	<polygon
   points="114.7,387.5 111.6,387.5 111.6,380.3 109.9,380.3 109.9,388.9 114.7,388.9  "
   id="polygon1212" />
	<rect
   x="115.5"
   y="380.3"
   width="1.7"
   height="8.6"
   id="rect1214" />
	<path
   d="M123.8,385.7c0-0.2-0.1-0.4-0.3-0.6c-0.1-0.2-0.3-0.3-0.5-0.5s-0.5-0.3-0.8-0.4l-1.3-0.6c-0.4-0.2-0.6-0.3-0.7-0.5   s-0.2-0.4-0.2-0.7c0-0.1,0-0.3,0-0.4s0.1-0.2,0.2-0.3s0.2-0.2,0.3-0.2c0.1-0.1,0.3-0.1,0.5-0.1c0.3,0,0.6,0.1,0.7,0.3   c0.1,0.2,0.2,0.5,0.2,0.9h1.7v-0.2c0-0.4-0.1-0.8-0.2-1.1c-0.1-0.3-0.3-0.5-0.6-0.7c-0.2-0.2-0.5-0.3-0.8-0.4s-0.7-0.1-1.1-0.1   c-0.8,0-1.5,0.2-1.9,0.6s-0.7,1-0.7,1.9c0,0.4,0,0.7,0.1,0.9c0.1,0.3,0.2,0.5,0.4,0.7c0.2,0.2,0.4,0.4,0.7,0.5s0.6,0.3,1,0.4   c0.3,0.1,0.5,0.2,0.7,0.3s0.4,0.2,0.5,0.3c0.1,0.1,0.2,0.2,0.3,0.4c0.1,0.1,0.1,0.3,0.1,0.5c0,0.4-0.1,0.6-0.3,0.8   c-0.2,0.2-0.5,0.3-0.7,0.3s-0.4,0-0.6-0.1c-0.1-0.1-0.3-0.2-0.4-0.3s-0.1-0.2-0.2-0.4c0-0.2,0-0.3,0-0.5v-0.3h-1.7v0.3   c0,0.8,0.2,1.4,0.6,1.8s1.1,0.6,2.1,0.6c0.9,0,1.7-0.2,2.2-0.6s0.8-1.1,0.8-2C123.9,386.2,123.9,385.9,123.8,385.7z"
   id="path1216" />
	<polygon
   points="127.9,388.9 127.9,381.7 129.8,381.7 129.8,380.3 124.3,380.3 124.3,381.7 126.2,381.7 126.2,388.9  "
   id="polygon1218" />
	<path
   d="M105.9,438c-0.1-0.2-0.3-0.4-0.5-0.5c-0.2-0.2-0.5-0.3-0.9-0.5l-1.4-0.6c-0.4-0.2-0.7-0.3-0.8-0.5s-0.2-0.4-0.2-0.7   c0-0.1,0-0.3,0-0.4s0.1-0.2,0.2-0.3c0.1-0.1,0.2-0.2,0.3-0.2s0.3-0.1,0.5-0.1c0.4,0,0.6,0.1,0.8,0.4s0.2,0.6,0.2,1h1.8v-0.3   c0-0.4-0.1-0.8-0.2-1.1s-0.3-0.6-0.6-0.8c-0.3-0.2-0.6-0.3-0.9-0.4s-0.7-0.1-1.1-0.1c-0.9,0-1.6,0.2-2.1,0.7s-0.8,1.1-0.8,2   c0,0.4,0,0.7,0.1,1s0.2,0.5,0.4,0.8c0.2,0.2,0.5,0.4,0.8,0.6s0.7,0.3,1.1,0.5c0.3,0.1,0.6,0.2,0.8,0.3s0.4,0.2,0.5,0.3   c0.1,0.1,0.2,0.3,0.3,0.4s0.1,0.3,0.1,0.5c0,0.4-0.1,0.7-0.3,0.9c-0.2,0.2-0.5,0.3-0.8,0.3c-0.2,0-0.4,0-0.6-0.1s-0.3-0.2-0.4-0.3   c-0.1-0.1-0.2-0.3-0.2-0.4s-0.1-0.4-0.1-0.6v-0.3H100v0.4c0,0.8,0.2,1.5,0.7,2s1.2,0.7,2.2,0.7s1.8-0.2,2.3-0.7   c0.6-0.4,0.8-1.1,0.8-2.1c0-0.3,0-0.5-0.1-0.8C106.1,438.4,106,438.2,105.9,438z"
   id="path1220" />
	<polygon
   points="112,442 113.6,434.7 113.6,434.7 113.6,442 115.3,442 115.3,432.9 112.6,432.9 111.3,439.3 111.3,439.3   109.9,432.9 107.2,432.9 107.2,442 108.9,442 108.9,434.7 108.9,434.7 110.5,442  "
   id="polygon1222" />
	<path
   d="M120.7,432.9h-2.3L116,442h1.9l0.4-1.9h2.4l0.4,1.9h1.9L120.7,432.9z M118.7,438.6l0.9-4.1l0,0l0.9,4.1H118.7z"
   id="path1224" />
	<path
   d="M130,442c-0.2-0.1-0.3-0.3-0.3-0.5c0-0.3-0.1-0.6-0.1-1.1c0-0.2,0-0.5,0-0.7s0-0.4,0-0.6c-0.1-0.5-0.2-0.9-0.4-1.1   s-0.6-0.4-1-0.5l0,0c0.5-0.1,0.9-0.4,1.2-0.8c0.2-0.4,0.4-0.9,0.4-1.5c0-0.8-0.2-1.4-0.6-1.8s-1-0.6-1.8-0.6H124v9.2h1.9v-3.9h1   c0.4,0,0.7,0.1,0.8,0.3c0.2,0.2,0.3,0.5,0.3,0.8l0.1,1.8c0,0.2,0,0.4,0.1,0.5c0,0.2,0.1,0.3,0.2,0.4L130,442L130,442z M127.5,436.5   c-0.2,0.2-0.6,0.3-1,0.3h-0.8v-2.6h0.9c0.9,0,1.3,0.4,1.3,1.3C127.8,436,127.7,436.3,127.5,436.5z"
   id="path1226" />
	<polygon
   points="134.1,442 134.1,434.4 136.1,434.4 136.1,432.9 130.2,432.9 130.2,434.4 132.3,434.4 132.3,442  "
   id="polygon1228" />
	<polygon
   points="111.5,453.4 113.6,453.4 113.6,457.5 115.5,457.5 115.5,448.3 113.6,448.3 113.6,451.8 111.5,451.8 111.5,448.3   109.6,448.3 109.6,457.5 111.5,457.5  "
   id="polygon1230" />
	<path
   d="M116.7,448.3v6.4c0,0.6,0.1,1.1,0.2,1.5s0.4,0.7,0.7,0.9c0.3,0.2,0.6,0.3,0.9,0.4c0.4,0.1,0.7,0.1,1.1,0.1s0.7,0,1.1-0.1   s0.7-0.2,0.9-0.5c0.3-0.2,0.5-0.5,0.7-0.9s0.2-0.9,0.2-1.4v-6.4h-1.9v6.4c0,0.2,0,0.4,0,0.6s-0.1,0.4-0.2,0.5s-0.2,0.3-0.3,0.3   c-0.1,0.1-0.3,0.1-0.5,0.1s-0.4,0-0.5-0.1s-0.3-0.2-0.3-0.3c-0.1-0.1-0.1-0.3-0.2-0.5c0-0.2,0-0.4,0-0.6v-6.4H116.7z"
   id="path1232" />
	<path
   d="M128.2,457.2c0.4-0.1,0.7-0.3,0.9-0.6c0.2-0.2,0.4-0.5,0.5-0.9c0.1-0.3,0.1-0.7,0.1-1c0-0.6-0.1-1.1-0.5-1.5   c-0.3-0.4-0.7-0.6-1.2-0.7l0,0c0.5-0.1,0.8-0.4,1-0.7c0.2-0.4,0.3-0.8,0.3-1.3c0-0.4-0.1-0.8-0.2-1.1c-0.1-0.3-0.3-0.5-0.5-0.7   s-0.5-0.3-0.8-0.4s-0.7-0.1-1-0.1h-3.1v9.2h3.1C127.4,457.5,127.8,457.4,128.2,457.2z M125.5,449.6h0.7c0.5,0,0.8,0.1,1,0.3   c0.2,0.2,0.3,0.5,0.3,0.9s-0.1,0.7-0.4,0.9c-0.2,0.2-0.6,0.3-1.1,0.3h-0.5V449.6z M125.5,456.1v-2.8h0.8c0.2,0,0.4,0,0.6,0.1   c0.2,0,0.3,0.1,0.4,0.2s0.2,0.2,0.3,0.4s0.1,0.4,0.1,0.7c0,0.5-0.1,0.9-0.4,1.1s-0.6,0.3-1.1,0.3L125.5,456.1L125.5,456.1z"
   id="path1234" />
	<path
   d="M168.2,246.2c-0.3-0.1-0.7-0.2-1.1-0.2h-3v8.6h1.7v-3.4h0.9c0.4,0,0.8-0.1,1.1-0.2c0.3-0.1,0.6-0.3,0.9-0.5   c0.2-0.2,0.4-0.5,0.6-0.8s0.2-0.7,0.2-1.2c0-0.3,0-0.6-0.1-0.9s-0.2-0.6-0.4-0.8C168.7,246.5,168.5,246.3,168.2,246.2z    M167.4,249.5c-0.2,0.2-0.5,0.3-0.8,0.3h-0.8v-2.6h0.7c0.4,0,0.7,0.1,0.9,0.3s0.3,0.6,0.3,1C167.7,249,167.6,249.3,167.4,249.5z"
   id="path1236" />
	<path
   d="M170.3,245.9v8.6h1.7v-3.6h0.9c0.4,0,0.6,0.1,0.8,0.3s0.2,0.5,0.3,0.8v1.6c0,0.2,0,0.3,0,0.5s0.1,0.3,0.2,0.4h1.9v-0.1   c-0.2-0.1-0.3-0.3-0.3-0.5s-0.1-0.6-0.1-1c0-0.2,0-0.4,0-0.6c0-0.2,0-0.4,0-0.5c0-0.5-0.2-0.8-0.4-1s-0.5-0.4-0.9-0.4l0,0   c0.5-0.1,0.8-0.3,1.1-0.7c0.2-0.4,0.3-0.8,0.3-1.4c0-0.7-0.2-1.3-0.6-1.7c-0.4-0.4-1-0.5-1.7-0.5h-3.2V245.9z M174,248.4   c0,0.5-0.1,0.8-0.3,1s-0.5,0.3-1,0.3H172v-2.5h0.8C173.6,247.2,174,247.6,174,248.4z"
   id="path1238" />
	<polygon
   points="181.7,247.4 181.7,245.9 176.9,245.9 176.9,254.5 181.9,254.5 181.9,253.1 178.7,253.1 178.7,250.8 181.6,250.8   181.6,249.4 178.7,249.4 178.7,247.4  "
   id="polygon1240" />
	<rect
   x="182.6"
   y="250.3"
   width="3.4"
   height="1.4"
   id="rect1242" />
	<path
   d="M192.1,253.6c0.2-0.3,0.3-0.7,0.4-1.1c0.1-0.4,0.1-0.9,0.1-1.3h-1.7c0,0.5,0,0.8-0.1,1.1s-0.1,0.5-0.2,0.7   c-0.1,0.2-0.2,0.3-0.3,0.3c-0.1,0.1-0.3,0.1-0.4,0.1c-0.2,0-0.3,0-0.5-0.1s-0.3-0.2-0.3-0.4c-0.1-0.2-0.2-0.5-0.2-0.9   s-0.1-0.9-0.1-1.6c0-0.6,0-1.1,0-1.5s0.1-0.8,0.2-1c0.1-0.3,0.2-0.4,0.3-0.6c0.1-0.1,0.3-0.2,0.5-0.2c0.4,0,0.7,0.1,0.8,0.4   c0.1,0.3,0.2,0.7,0.2,1.4h1.7c0-0.3,0-0.6-0.1-1c0-0.4-0.2-0.7-0.3-1s-0.4-0.6-0.8-0.8c-0.4-0.2-0.8-0.3-1.5-0.3   c-0.6,0-1.2,0.1-1.5,0.3c-0.4,0.2-0.7,0.5-0.9,0.9s-0.3,0.9-0.4,1.4s-0.1,1.1-0.1,1.8s0,1.3,0.1,1.8s0.2,1,0.4,1.4s0.5,0.7,0.9,0.9   s0.9,0.3,1.5,0.3s1-0.1,1.4-0.3C191.6,254.2,191.9,254,192.1,253.6z"
   id="path1244" />
	<polygon
   points="195.3,250.7 197.3,250.7 197.3,254.5 199.1,254.5 199.1,245.9 197.3,245.9 197.3,249.2 195.3,249.2 195.3,245.9   193.6,245.9 193.6,254.5 195.3,254.5  "
   id="polygon1246" />
	<polygon
   points="47.4,247 49.3,247 49.3,254.1 51,254.1 51,247 52.9,247 52.9,245.5 47.4,245.5  "
   id="polygon1248" />
	<polygon
   points="55,254.1 56.2,251.2 57.5,254.1 59.4,254.1 57.3,249.8 59.3,245.5 57.4,245.5 56.3,248.3 55.2,245.5 53.3,245.5   55.3,249.8 53.1,254.1  "
   id="polygon1250" />
	<polygon
   points="63.2,254.1 63.2,247 65.1,247 65.1,245.5 59.6,245.5 59.6,247 61.5,247 61.5,254.1  "
   id="polygon1252" />
	<path
   d="M47.3,267.6c0,2.7,5.4,3.1,8.6,3.1c0.1,0,0.1,0,0.2,0c2.1,0,6.6-0.2,8.2-1.8c0.4-0.4,0.6-0.8,0.6-1.3V261   c0-0.5-0.2-0.9-0.6-1.3c-1.4-1.4-5.3-1.7-8.4-1.6c-5.8,0-8.6,1-8.6,2.9C47.3,261,47.3,267.6,47.3,267.6z M48.3,261   c0-0.9,2-1.9,7.6-1.9c0.1,0,0.2,0,0.3,0c3.8,0,6.5,0.5,7.4,1.3c0.2,0.2,0.3,0.4,0.3,0.6v6.6c0,0.2-0.1,0.4-0.3,0.6   c-0.9,0.9-3.8,1.5-7.6,1.5c-4.5,0-7.6-0.9-7.6-2.1V261H48.3z"
   id="path1254" />
	<path
   d="M50.4,262.1h11.5c0.3,0,0.5-0.2,0.5-0.5s-0.2-0.5-0.5-0.5H50.4c-0.3,0-0.5,0.2-0.5,0.5S50.1,262.1,50.4,262.1z"
   id="path1256" />
	<path
   d="M50.4,264.8h11.5c0.3,0,0.5-0.2,0.5-0.5s-0.2-0.5-0.5-0.5H50.4c-0.3,0-0.5,0.2-0.5,0.5C49.8,264.6,50.1,264.8,50.4,264.8z"
   id="path1258" />
	<path
   d="M50.4,267.5h11.5c0.3,0,0.5-0.2,0.5-0.5s-0.2-0.5-0.5-0.5H50.4c-0.3,0-0.5,0.2-0.5,0.5S50.1,267.5,50.4,267.5z"
   id="path1260" />
	<path
   d="M172.8,264c3,1.5,5.9,3,8.9,4.4c0.3,0.2,0.5,0.2,0.5-0.4v-3h9.2v-2.3h-9.3c0-1,0.1-2.4,0.1-3.4c0-0.5-0.2-0.6-0.6-0.4   c-3.1,1.6-5.9,3-8.9,4.4C172.4,263.7,172.4,263.8,172.8,264z"
   id="path1262" />
	<polygon
   points="33.6,703.3 35.4,703.3 35.4,702.3 33.6,702.3 33.6,700.8 35.5,700.8 35.5,699.8 32.5,699.8 32.5,705.9 35.6,705.9   35.6,704.9 33.6,704.9  "
   id="polygon1264" />
	<rect
   x="36.1"
   y="702.9"
   width="2.1"
   height="1"
   id="rect1266" />
	<polygon
   points="43.7,705.9 43.7,699.8 42.1,699.8 41.3,704.1 41.3,704.1 40.5,699.8 38.9,699.8 38.9,705.9 39.9,705.9 39.9,701   39.9,701 40.9,705.9 41.7,705.9 42.7,701 42.7,701 42.7,705.9  "
   id="polygon1268" />
	<path
   d="M44.1,705.9h1.1l0.2-1.3h1.4l0.2,1.3h1.1l-1.4-6.1h-1.3L44.1,705.9z M46.1,700.9L46.1,700.9l0.5,2.7h-1L46.1,700.9z"
   id="path1270" />
	<polygon
   points="51.1,704 49.8,699.8 48.6,699.8 48.6,705.9 49.6,705.9 49.6,701.6 49.6,701.6 50.9,705.9 52.2,705.9 52.2,699.8   51.2,699.8 51.2,704  "
   id="polygon1272" />
	<path
   d="M53.4,705.7c0.2,0.1,0.3,0.2,0.5,0.3c0.2,0,0.4,0.1,0.6,0.1s0.4,0,0.6-0.1c0.2-0.1,0.4-0.2,0.5-0.3   c0.2-0.1,0.3-0.3,0.4-0.6c0.1-0.3,0.1-0.6,0.1-1v-4.2H55v4.2c0,0.2,0,0.3,0,0.4s0,0.2-0.1,0.3c0,0.1-0.1,0.2-0.2,0.2   s-0.2,0.1-0.3,0.1s-0.2,0-0.3-0.1s-0.1-0.1-0.2-0.2c0-0.1-0.1-0.2-0.1-0.3s0-0.3,0-0.4v-4.2h-1.1v4.2c0,0.4,0,0.7,0.1,1   S53.2,705.5,53.4,705.7z"
   id="path1274" />
	<path
   d="M58,699.8l-1.4,6.1h1.1l0.2-1.3h1.4l0.2,1.3h1.1l-1.4-6.1H58z M58.1,703.6l0.5-2.7l0,0l0.5,2.7H58.1z"
   id="path1276" />
	<polygon
   points="62.2,699.8 61.1,699.8 61.1,705.9 64.1,705.9 64.1,704.9 62.2,704.9  "
   id="polygon1278" />
	<path
   d="M132.1,558.8v-3.6h-1.2v1.8c0,0.8,0,2.8-0.4,3.2s-1,0.4-1.5,0.4h-0.8v-2.8c0-1.4-1.2-2.6-2.6-2.6h-12.1   c-1.4,0-2.6,1.2-2.6,2.6v6.8c0,1.4,1.2,2.6,2.6,2.6h12.1c1.4,0,2.6-1.2,2.6-2.6v-2.8h1.4C131.4,561.8,132.1,560.7,132.1,558.8z    M127.1,560.6h-3.7v-1.5c0-0.3-0.1-0.3-0.3-0.2c-1.5,0.8-3,1.5-4.5,2.3c-0.2,0.1-0.2,0.2,0,0.2c1.5,0.8,2.9,1.5,4.5,2.3   c0.2,0.1,0.3,0.1,0.3-0.2c0-0.5-0.1-1.2-0.1-1.7h3.8v2.8c0,0.9-0.7,1.5-1.5,1.5h-12.1c-0.8,0-1.5-0.7-1.5-1.5v-6.8   c0-0.9,0.7-1.5,1.5-1.5h12.1c0.9,0,1.5,0.7,1.5,1.5C127.1,557.8,127.1,560.6,127.1,560.6z"
   id="path1280" />
	<polygon
   points="107.4,303.7 107.4,303.7 108.9,310.5 110.3,310.5 111.8,303.7 111.8,303.7 111.8,310.5 113.4,310.5 113.4,301.9   110.9,301.9 109.6,308 109.6,308 108.4,301.9 105.8,301.9 105.8,310.5 107.4,310.5  "
   id="polygon1282" />
	<path
   d="M114.5,301.9v6c0,0.6,0.1,1,0.2,1.4c0.2,0.4,0.4,0.6,0.6,0.8c0.3,0.2,0.5,0.3,0.9,0.4c0.3,0.1,0.7,0.1,1,0.1   c0.4,0,0.7,0,1-0.1s0.6-0.2,0.9-0.4c0.3-0.2,0.5-0.5,0.6-0.8c0.2-0.4,0.2-0.8,0.2-1.3v-6h-1.7v6c0,0.2,0,0.4,0,0.6   s-0.1,0.3-0.2,0.5c-0.1,0.1-0.2,0.2-0.3,0.3s-0.3,0.1-0.5,0.1s-0.4,0-0.5-0.1s-0.2-0.2-0.3-0.3s-0.1-0.3-0.2-0.5s0-0.4,0-0.6v-6   h-1.7V301.9z"
   id="path1284" />
	<polygon
   points="120.6,303.3 122.5,303.3 122.5,310.5 124.2,310.5 124.2,303.3 126.1,303.3 126.1,301.9 120.6,301.9  "
   id="polygon1286" />
	<polygon
   points="131.8,309.1 128.6,309.1 128.6,306.8 131.5,306.8 131.5,305.4 128.6,305.4 128.6,303.3 131.6,303.3 131.6,301.9   126.9,301.9 126.9,310.5 131.8,310.5  "
   id="polygon1288" />
	<path
   d="M92.4,703.1L92.4,703.1c0.4-0.1,0.7-0.3,1-0.6c0.2-0.3,0.3-0.7,0.3-1.3c0-0.8-0.2-1.3-0.6-1.7s-1-0.5-1.8-0.5   s-1.4,0.2-1.9,0.6c-0.4,0.4-0.6,1.1-0.6,1.9h1.6c0-0.2,0-0.4,0-0.6c0-0.2,0.1-0.3,0.1-0.4c0.1-0.1,0.2-0.2,0.3-0.3   c0.1-0.1,0.3-0.1,0.5-0.1c0.3,0,0.5,0.1,0.6,0.3s0.2,0.5,0.2,0.9c0,0.2,0,0.3-0.1,0.5c0,0.2-0.1,0.3-0.2,0.4   c-0.1,0.1-0.2,0.2-0.3,0.3c-0.1,0.1-0.3,0.1-0.5,0.1h-0.6v1.1H91c0.2,0,0.4,0,0.6,0.1c0.1,0.1,0.3,0.2,0.3,0.3   c0.1,0.1,0.1,0.3,0.2,0.5c0,0.2,0,0.4,0,0.6c0,0.2,0,0.4,0,0.5c0,0.2-0.1,0.3-0.1,0.4c-0.1,0.1-0.2,0.2-0.3,0.3   c-0.1,0.1-0.3,0.1-0.5,0.1c-0.4,0-0.6-0.1-0.8-0.4c-0.1-0.3-0.2-0.6-0.2-1.1h-1.7l0,0c0,0.8,0.2,1.5,0.6,1.9c0.4,0.5,1,0.7,1.9,0.7   c0.6,0,1.1-0.1,1.4-0.2c0.4-0.2,0.7-0.4,0.9-0.6c0.2-0.3,0.4-0.5,0.4-0.8s0.1-0.6,0.1-0.9c0-0.5-0.1-1-0.3-1.3   C93.4,703.4,93,703.2,92.4,703.1z"
   id="path1290" />
	<path
   d="M102.9,695.7L102.9,695.7l-0.2-0.2l-0.1-0.1c0,0-0.1,0-0.1-0.1c0,0-0.1,0-0.1-0.1c-0.1,0-0.1,0-0.2-0.1h-0.1   c-0.1,0-0.2,0-0.3,0H88.5c-0.1,0-0.2,0-0.3,0h-0.1c-0.1,0-0.1,0-0.2,0.1c0,0-0.1,0-0.1,0.1c0,0-0.1,0-0.1,0.1c0,0-0.1,0-0.1,0.1   l-0.1,0.1l-0.1,0.1c0,0,0,0-0.1,0.1c-0.2,0.3-0.4,0.6-0.4,1v10.8c0,0.7,5.1,2.3,7.2,3c0.6,0.2,1.3,0.2,1.9,0c2.2-0.7,7.2-2.4,7.2-3   v-10.8C103.3,696.3,103.2,696,102.9,695.7C103,695.7,102.9,695.7,102.9,695.7z M94.5,709.6c-4.1-1.3-5.8-2.1-6.4-2.4V697   c1.6,0.8,4.6,1.7,6.1,2.2c0.1,0,0.2,0,0.3,0.1V709.6z M101.9,705c-0.1,0.5-0.2,1-0.5,1.3c-0.2,0.3-0.5,0.6-0.9,0.8   s-0.8,0.3-1.4,0.3h-2.6v-8.1h2.7c0.6,0,1,0.1,1.4,0.3c0.3,0.2,0.6,0.5,0.8,0.8c0.2,0.3,0.3,0.8,0.4,1.2c0.1,0.5,0.1,1,0.1,1.6   C102,703.8,102,704.4,101.9,705z"
   id="path1292" />
	<path
   d="M100.2,701c-0.1-0.2-0.2-0.4-0.4-0.5c-0.2-0.1-0.4-0.2-0.7-0.2h-0.7v5.7H99c0.3,0,0.5,0,0.7-0.1s0.3-0.3,0.4-0.5   s0.2-0.5,0.2-0.9s0.1-0.8,0.1-1.4c0-0.5,0-0.9,0-1.2C100.3,701.6,100.3,701.3,100.2,701z"
   id="path1294" />
	<path
   d="M58.6,131v-20.3h-3c-0.2,1.1-0.7,2-1.5,2.5s-1.9,0.8-3.3,0.8h-0.4v2.7h4.1V131H58.6z"
   id="path1296" />
	<path
   d="M120.3,118.4c-0.2,0.3-0.4,0.7-0.6,1c-0.3,0.3-0.6,0.7-1.1,1.1l-1.7,1.6c-0.7,0.7-1.4,1.4-2,2.1s-1,1.4-1.4,2.1   s-0.7,1.5-0.8,2.2c-0.2,0.8-0.3,1.6-0.3,2.5h12.5v-3.2h-7.7c0.1-0.4,0.3-0.8,0.7-1.4s0.8-1.1,1.4-1.6l2.3-2.1   c0.6-0.5,1.1-1,1.5-1.5s0.7-1,1-1.5c0.2-0.5,0.4-1.1,0.5-1.6c0.1-0.6,0.2-1.2,0.2-1.8c0-1.8-0.5-3.2-1.5-4.1c-1-1-2.5-1.4-4.6-1.4   c-2.2,0-3.8,0.5-4.8,1.5s-1.5,2.5-1.5,4.4v0.8h4c0-0.5,0-1,0.1-1.5c0-0.5,0.2-0.9,0.3-1.3c0.2-0.4,0.4-0.7,0.7-0.9   c0.3-0.2,0.7-0.3,1.2-0.3c1.3,0,2,0.8,2,2.5c0,0.5,0,1-0.1,1.4S120.5,118,120.3,118.4z"
   id="path1298" />
	<path
   d="M183,127.7c-0.2,0.3-0.4,0.5-0.7,0.7s-0.7,0.3-1.2,0.3c-0.9,0-1.5-0.3-1.8-0.9c-0.3-0.6-0.5-1.5-0.5-2.7h-4v0.1   c0,2,0.5,3.5,1.5,4.6s2.5,1.6,4.4,1.6c1.4,0,2.6-0.2,3.4-0.5s1.6-0.8,2.1-1.4c0.5-0.6,0.8-1.3,1-2c0.2-0.7,0.3-1.4,0.3-2.1   c0-1.3-0.3-2.4-0.8-3.2c-0.5-0.9-1.5-1.4-2.8-1.6v-0.1c1-0.2,1.7-0.7,2.3-1.5s0.8-1.8,0.8-3c0-1.8-0.5-3.1-1.5-4   c-1-0.8-2.5-1.3-4.3-1.3c-2,0-3.4,0.5-4.5,1.5c-1,1-1.5,2.5-1.5,4.5h3.8c0-0.5,0-0.9,0.1-1.3c0-0.4,0.1-0.8,0.3-1   c0.2-0.3,0.4-0.5,0.6-0.7c0.3-0.2,0.6-0.2,1.1-0.2c0.7,0,1.2,0.2,1.5,0.6s0.5,1.1,0.5,2.1c0,0.4,0,0.8-0.1,1.2   c-0.1,0.4-0.2,0.7-0.4,1s-0.4,0.5-0.7,0.7s-0.7,0.3-1.1,0.3h-1.4v2.7h1.4c0.6,0,1,0.1,1.4,0.3c0.3,0.2,0.6,0.5,0.8,0.8   s0.3,0.7,0.4,1.1s0.1,0.8,0.1,1.3c0,0.4,0,0.9-0.1,1.3S183.1,127.4,183,127.7z"
   id="path1300" />
	<path
   d="M49.6,172.4h7.2v4.2h3.8v-4.2h2v-3.2h-2v-12.9h-4.3L49.6,169V172.4z M56.8,161.5L56.8,161.5l0.1,7.7h-4L56.8,161.5z"
   id="path1302" />
	<path
   d="M113.5,175.1c0.4,0.6,1,1,1.8,1.4c0.8,0.3,1.8,0.5,3.1,0.5c1.3,0,2.4-0.2,3.2-0.5c0.8-0.3,1.5-0.8,2-1.5s0.8-1.5,1-2.4   s0.3-1.9,0.3-3.1c0-0.8-0.1-1.6-0.2-2.4s-0.4-1.5-0.8-2.1s-0.9-1.1-1.5-1.5s-1.5-0.6-2.4-0.6s-1.6,0.1-2.2,0.4   c-0.6,0.2-1.1,0.6-1.5,1.2h-0.1l0.4-4.6h7.5v-3.2h-10.6l-0.7,11.1h3.7c0.1-0.6,0.3-1,0.6-1.4c0.3-0.3,0.8-0.5,1.4-0.5   c0.5,0,0.8,0.1,1.1,0.2c0.3,0.1,0.6,0.4,0.7,0.7c0.2,0.3,0.3,0.8,0.4,1.3c0.1,0.6,0.1,1.3,0.1,2.1c0,1.3-0.2,2.3-0.6,3s-1,1-1.9,1   c-0.4,0-0.8-0.1-1.1-0.3c-0.3-0.2-0.5-0.5-0.6-0.8s-0.2-0.7-0.3-1.1s-0.1-0.7-0.1-1.1h-4v0.5c0,0.6,0.1,1.2,0.2,1.9   S113,174.5,113.5,175.1z"
   id="path1304" />
	<path
   d="M174.7,167.5c0,1.2,0.1,2.4,0.2,3.6c0.1,1.1,0.4,2.2,0.9,3c0.5,0.9,1.1,1.6,1.9,2.1c0.8,0.5,2,0.7,3.4,0.7   c2.3,0,4-0.6,5-1.8s1.6-3,1.6-5.4c0-0.9-0.1-1.8-0.3-2.5c-0.2-0.8-0.5-1.4-0.9-2s-0.9-1-1.5-1.3s-1.4-0.5-2.3-0.5   c-0.9,0-1.7,0.2-2.3,0.5s-1.1,0.7-1.5,1.3h-0.1v-1c0-0.7,0-1.4,0.1-2.1s0.2-1.2,0.4-1.6c0.2-0.5,0.4-0.8,0.8-1.1   c0.3-0.3,0.8-0.4,1.3-0.4c0.7,0,1.2,0.2,1.5,0.6c0.3,0.4,0.4,1,0.4,1.8h4c0-1-0.2-1.8-0.5-2.5s-0.7-1.2-1.2-1.6   c-0.5-0.4-1.1-0.7-1.8-0.9s-1.4-0.3-2.1-0.3c-1.7,0-3,0.3-3.9,0.9s-1.6,1.5-2,2.5s-0.7,2.2-0.8,3.6   C174.7,164.7,174.7,166.1,174.7,167.5z M179.5,167.4c0.3-0.6,0.9-0.9,1.8-0.9c0.8,0,1.4,0.3,1.7,0.9s0.5,1.6,0.5,3   c0,0.6,0,1.1-0.1,1.6c0,0.5-0.1,0.9-0.3,1.3s-0.4,0.6-0.7,0.8s-0.7,0.3-1.2,0.3s-0.9-0.1-1.2-0.3s-0.5-0.5-0.7-0.8   c-0.2-0.4-0.3-0.8-0.3-1.3c-0.1-0.5-0.1-1-0.1-1.6C179,168.9,179.2,168,179.5,167.4z"
   id="path1306" />
	<path
   d="M62.4,205.4v-3.2H49.8v3.6h8.6c-1,1.4-1.9,2.7-2.6,4.2s-1.3,2.8-1.9,4.2c-0.5,1.4-0.9,2.8-1.2,4.1   c-0.3,1.4-0.5,2.6-0.7,3.9h4.3c0.2-1.4,0.4-2.9,0.7-4.4s0.7-2.9,1.2-4.4c0.5-1.4,1.1-2.8,1.7-4.2C60.8,207.9,61.5,206.6,62.4,205.4   z"
   id="path1308" />
	<path
   d="M113.4,220.4c0.5,0.6,1.1,1.1,2,1.5s2,0.6,3.4,0.6s2.6-0.2,3.4-0.6s1.5-0.9,2-1.5s0.8-1.3,0.9-2s0.2-1.4,0.2-2   c0-1.3-0.3-2.4-0.9-3.3c-0.6-0.9-1.4-1.5-2.6-1.7v-0.1c0.5-0.1,1-0.3,1.4-0.6s0.7-0.6,0.9-1c0.2-0.4,0.4-0.7,0.5-1.1   s0.2-0.8,0.2-1.1c0-2-0.5-3.4-1.6-4.3c-1.1-0.9-2.5-1.3-4.4-1.3s-3.3,0.4-4.4,1.3c-1.1,0.9-1.6,2.3-1.6,4.3c0,0.4,0,0.7,0.1,1.1   s0.3,0.8,0.5,1.1c0.2,0.4,0.5,0.7,0.9,1s0.8,0.5,1.4,0.6v0.1c-1.1,0.2-2,0.8-2.6,1.7s-0.9,2-0.9,3.3c0,0.6,0.1,1.2,0.2,2   C112.6,219.1,112.9,219.8,113.4,220.4z M118.8,204.6c1.3,0,2,0.9,2,2.8c0,1-0.2,1.7-0.5,2.2c-0.4,0.5-0.9,0.7-1.5,0.7   s-1.1-0.2-1.5-0.7s-0.5-1.2-0.5-2.2C116.8,205.5,117.4,204.6,118.8,204.6z M116.5,215c0.1-0.4,0.2-0.8,0.4-1.1   c0.2-0.3,0.4-0.6,0.7-0.7c0.3-0.2,0.7-0.3,1.2-0.3s0.8,0.1,1.1,0.3c0.3,0.2,0.6,0.4,0.7,0.7c0.2,0.3,0.3,0.7,0.4,1.1   c0.1,0.4,0.1,0.9,0.1,1.4s0,0.9-0.1,1.4c-0.1,0.4-0.2,0.8-0.4,1.1c-0.2,0.3-0.4,0.6-0.7,0.7s-0.7,0.3-1.1,0.3s-0.8-0.1-1.2-0.3   s-0.6-0.4-0.7-0.7c-0.2-0.3-0.3-0.7-0.4-1.1s-0.1-0.9-0.1-1.4S116.5,215.5,116.5,215z"
   id="path1310" />
	<path
   d="M174.9,211.7c0.2,0.8,0.5,1.4,0.9,2s0.9,1,1.5,1.3s1.4,0.5,2.3,0.5c0.9,0,1.7-0.2,2.3-0.5s1.1-0.7,1.5-1.2h0.1v1   c0,0.7,0,1.4-0.1,2.1s-0.2,1.2-0.4,1.6c-0.2,0.5-0.4,0.8-0.8,1.1c-0.3,0.3-0.8,0.4-1.3,0.4c-0.7,0-1.2-0.2-1.5-0.6   c-0.3-0.4-0.4-1-0.4-1.8h-4c0,1,0.2,1.8,0.5,2.5s0.7,1.2,1.2,1.6c0.5,0.4,1.1,0.7,1.8,0.8s1.4,0.2,2.1,0.2c1.7,0,3-0.3,3.9-0.9   s1.6-1.4,2-2.5c0.4-1,0.7-2.2,0.8-3.6c0.1-1.4,0.1-2.8,0.1-4.2c0-1.2-0.1-2.4-0.2-3.6c-0.1-1.1-0.4-2.2-0.9-3s-1.1-1.6-1.9-2.1   c-0.8-0.5-2-0.8-3.4-0.8c-2.3,0-4,0.6-5,1.9c-1,1.2-1.6,3-1.6,5.4C174.7,210.1,174.8,210.9,174.9,211.7z M178.9,207   c0-0.5,0.1-0.9,0.3-1.3c0.2-0.4,0.4-0.6,0.7-0.8s0.7-0.3,1.2-0.3s0.9,0.1,1.2,0.3s0.5,0.5,0.7,0.8c0.2,0.4,0.3,0.8,0.3,1.3   c0.1,0.5,0.1,1,0.1,1.6c0,1.4-0.2,2.4-0.5,3s-0.9,0.9-1.8,0.9c-0.8,0-1.4-0.3-1.7-0.9c-0.3-0.6-0.5-1.6-0.5-3   C178.8,208,178.8,207.5,178.9,207z"
   id="path1312" />
	<path
   d="M113.6,266.7c0.5,0.8,1.1,1.3,2,1.7c0.8,0.3,1.8,0.5,3.1,0.5c1.5,0,2.7-0.3,3.5-0.9c0.9-0.6,1.5-1.4,1.9-2.4   s0.7-2.2,0.8-3.5c0.1-1.3,0.1-2.7,0.1-4.1c0-1.8-0.1-3.3-0.3-4.6c-0.2-1.3-0.5-2.3-1-3.1s-1.1-1.4-2-1.7s-1.8-0.5-3.1-0.5   c-1.5,0-2.7,0.3-3.5,0.9s-1.5,1.4-1.9,2.4s-0.7,2.2-0.8,3.5c-0.1,1.3-0.1,2.7-0.1,4.1c0,1.8,0.1,3.3,0.3,4.6   C112.8,264.9,113.1,265.9,113.6,266.7z M116.4,257.7c0-1.3,0-2.4,0.1-3.3s0.2-1.6,0.3-2.1c0.2-0.5,0.4-0.9,0.7-1.1s0.7-0.3,1.1-0.3   s0.8,0.1,1.1,0.3s0.5,0.5,0.7,1s0.3,1.1,0.4,1.9c0.1,0.8,0.1,1.9,0.1,3.1v2.2c0,1.3,0,2.4-0.1,3.3s-0.2,1.6-0.3,2.1   s-0.4,0.9-0.7,1.1c-0.3,0.2-0.7,0.3-1.1,0.3s-0.8-0.1-1.1-0.3c-0.3-0.2-0.5-0.5-0.7-1s-0.3-1.1-0.4-1.9s-0.1-1.9-0.1-3.1V257.7z"
   id="path1314" />
</g>

<g
   transform="matrix(0.21880174,0,0,0.21880174,118.11561,714.98695)"
   id="layer1"
   inkscape:label="Ebene 1"
   style="fill:#000000"><g
     transform="translate(-1.494141e-6,7.088289)"
     id="g24516"
     style="fill:#000000"><path
       id="path23367"
       class="ps023 ps14 ps23"
       d="M -374.9204,524.95104 V 409.59078 h 48.38252 c 16.3218,0.17485 32.06069,1.03467 42.99051,15.70973 3.06033,4.13874 7.28649,11.7459 7.28649,24.51188 0,16.0595 -6.99503,25.72144 -11.80413,30.2245 -8.59812,8.61269 -20.11082,9.48706 -31.47781,10.01168 h -21.13092 v 34.90247 z m 47.36241,-61.6586 c 5.68347,-0.14571 12.09562,-0.45175 16.17609,-4.60506 1.16582,-1.22414 3.06033,-3.68699 3.06033,-7.69456 -0.14574,-3.97844 -1.89451,-6.45589 -2.91459,-7.68 -4.95484,-5.37746 -12.97002,-4.76542 -19.5279,-4.76542 h -9.47251 v 24.74504 h 12.67858"
       style="font-size:3.49419999px;font-family:fnt1, FranklinGothic, Arial;letter-spacing:0;word-spacing:0.10098;fill:#000000;fill-rule:nonzero;stroke:none;stroke-width:0.011;stroke-linecap:butt;stroke-linejoin:miter;stroke-miterlimit:4;stroke-dasharray:none"
       inkscape:connector-curvature="0" /><path
       id="path23369"
       class="ps023 ps14 ps23"
       d="m -220.73755,525.08218 -1.31157,-7.68001 c -4.3719,3.42469 -12.38708,10.12829 -26.81442,10.12829 -2.4774,0 -13.26145,-0.33519 -20.69373,-6.52875 -3.20608,-2.78343 -8.7438,-9.48704 -8.7438,-20.57713 0,-2.62313 0.72862,-7.08248 4.95481,-12.63481 5.97495,-8.00062 13.11573,-10.17201 22.29678,-12.31423 l 15.44741,-1.92364 c 1.74876,-0.49552 3.64327,-0.9764 5.68352,-1.29702 0.43719,-0.17487 2.91459,-0.51006 4.22616,-1.48646 1.31156,-0.97638 2.3317,-4.73623 2.3317,-6.54331 0,-3.26432 -4.22621,-5.93119 -10.78407,-5.93119 -5.82921,0 -8.59809,2.11307 -10.05537,4.24071 -0.72868,1.13672 -1.02014,2.11312 -1.16588,4.73626 l -29.29182,-0.17488 c 1.31157,-6.68902 2.62316,-12.08106 7.43226,-17.63337 5.97495,-6.7036 15.44743,-10.94437 33.9552,-10.94437 3.49753,0 17.77911,-1.47186 28.27171,5.55233 4.22618,2.78346 6.99506,6.0624 8.88956,10.46346 3.20608,6.8639 2.33171,15.17053 2.33171,22.36963 v 23.02543 c -0.14574,14.36901 0.87437,16.97759 3.4975,25.15306 z m -3.06034,-37.04469 c -4.22621,1.47186 -8.59811,2.78343 -12.97001,4.25531 l -3.20607,0.9764 c -1.60303,0.32062 -6.55787,1.39902 -6.55787,7.60714 0,2.78345 1.60303,7.84032 8.01517,7.84032 0.87437,0 4.8091,-0.37891 6.84935,-1.03469 5.82918,-1.63218 6.26641,-5.4212 7.86943,-7.06793 v -12.57655"
       style="font-size:3.49419999px;font-family:fnt1, FranklinGothic, Arial;letter-spacing:0;word-spacing:0.10098;fill:#000000;fill-rule:nonzero;stroke:none;stroke-width:0.011;stroke-linecap:butt;stroke-linejoin:miter;stroke-miterlimit:4;stroke-dasharray:none"
       inkscape:connector-curvature="0" /><path
       id="path23371"
       class="ps023 ps14 ps23"
       d="m -132.5706,525.16963 v -40.86284 c 0,4.86739 1.31157,-15.9575 -3.06033,-18.0123 -1.45731,-0.71408 -4.22621,-2.12767 -7.578,-2.05478 -3.78899,0.0729 -8.01518,1.90906 -9.47249,5.27543 -1.60305,4.1096 -2.18593,7.88401 -2.04024,16.43841 v 39.24521 h -31.47776 v -84.58198 h 29.72899 l 0.4372,9.82223 c 4.08047,-4.99852 8.88957,-11.45441 26.37722,-11.45441 12.8243,0 22.58824,4.47393 26.52297,17.45852 0.87437,3.27895 1.31156,6.45586 1.60302,13.18863 v 55.53788 h -31.04058"
       style="font-size:3.49419999px;font-family:fnt1, FranklinGothic, Arial;letter-spacing:0;word-spacing:0.10098;fill:#000000;fill-rule:nonzero;stroke:none;stroke-width:0.011;stroke-linecap:butt;stroke-linejoin:miter;stroke-miterlimit:4;stroke-dasharray:none"
       inkscape:connector-curvature="0" /><path
       id="path23373"
       class="ps023 ps14 ps23"
       d="m 42.305975,465.05581 c -0.582913,-3.22065 -2.914617,-8.55439 -10.929791,-8.55439 -3.497531,0 -6.120666,0.94724 -7.432234,1.76334 -0.72868,0.30604 -1.894506,2.4191 -1.894506,4.83826 0,0.6412 0.582913,2.56484 2.477394,3.70154 1.165877,0.6558 3.934754,1.45728 7.140803,1.82163 l 12.3871,3.22063 c 8.743827,2.21512 16.321802,3.77446 22.442469,9.89512 3.060384,2.90002 4.663408,6.65987 5.100581,8.19005 1.457309,4.3719 0.728654,7.79656 0.728654,9.25387 0,9.96797 -4.809099,15.97208 -7.578,18.55148 -5.974926,5.47949 -15.447408,9.61825 -32.789322,9.61825 -14.427322,0 -23.462631,-3.78901 -28.8546685,-6.92222 -11.512704,-6.67447 -12.0956175,-18.95952 -12.8242719,-22.8214 l 30.0204954,-0.102 c 0.291457,2.90004 0.728629,5.07142 3.060333,7.15535 1.894507,1.77793 3.934704,3.00207 9.326741,3.00207 6.412149,0 10.055421,-3.08949 10.201137,-5.9021 0.14574,-0.33517 0.14574,-2.59398 -0.728655,-3.71612 -1.457309,-2.4191 -5.392012,-3.43924 -11.075506,-4.89655 0,0 -17.487655,-3.75985 -18.799223,-4.38648 -3.9347287,-1.80703 -19.8193592,-5.37746 -19.8193592,-23.09828 0,-9.96797 5.1005808,-15.28714 8.01517311,-18.02685 C 5.8733564,442.96304 14.7629,438.6203 30.647555,438.6203 c 3.497506,0 18.362025,-0.16032 29.437532,7.41768 3.060333,2.08393 5.537753,4.66336 7.432259,7.72369 2.623136,4.34277 3.060334,9.53077 3.351816,11.29414 H 42.305975"
       style="font-size:3.49419999px;font-family:fnt1, FranklinGothic, Arial;letter-spacing:0;word-spacing:0.10098;fill:#000000;fill-rule:nonzero;stroke:none;stroke-width:0.011;stroke-linecap:butt;stroke-linejoin:miter;stroke-miterlimit:4;stroke-dasharray:none"
       inkscape:connector-curvature="0" /><path
       id="path23381"
       class="ps023"
       d="m 150.58372,515.49311 c -5.10056,5.17343 -15.59317,11.96448 -32.93509,11.96448 -5.53778,0 -20.839443,-0.32061 -32.06069,-13.58211 -4.663408,-5.65431 -10.346877,-15.03937 -10.346877,-31.87121 0,-2.91464 0,-9.54535 2.768876,-16.81732 6.266433,-18.43489 23.316891,-26.84355 41.241721,-26.68326 4.80912,0 19.81936,0.48091 30.60341,11.48357 5.39203,5.49404 12.24138,15.52031 12.09564,33.31397 0,4.35735 -0.29146,20.86861 -11.36699,32.19188 z m -23.31686,-51.06397 c -2.76888,-2.59398 -6.99509,-3.11863 -8.4524,-3.11863 -3.64322,0 -6.26641,2.11312 -7.14078,2.7543 -3.78899,3.07494 -6.55786,7.75288 -6.55786,18.26005 0,8.24834 1.8945,22.04901 13.55292,22.04901 3.35179,0 6.55787,-0.87437 8.59812,-3.2935 2.76885,-3.07491 5.68349,-8.62727 5.53775,-18.33292 0,-0.48091 0.14574,-12.50366 -5.53775,-18.31831"
       style="font-size:3.49419999px;font-family:fnt1, FranklinGothic, Arial;letter-spacing:0;word-spacing:0.10098;fill:#000000;fill-rule:nonzero;stroke:none;stroke-width:0.011;stroke-linecap:butt;stroke-linejoin:miter;stroke-miterlimit:4;stroke-dasharray:none"
       inkscape:connector-curvature="0" /><path
       id="path23383"
       class="ps023"
       d="m 257.40416,440.33991 h 30.89486 v 84.97543 h -30.89486 z m 0,-31.50694 h 30.89486 v 22.10733 h -30.89486 z"
       style="font-size:3.49419999px;font-family:fnt1, FranklinGothic, Arial;letter-spacing:0;word-spacing:0.10098;fill:#000000;fill-rule:nonzero;stroke:none;stroke-width:0.011;stroke-linecap:butt;stroke-linejoin:miter;stroke-miterlimit:4;stroke-dasharray:none"
       inkscape:connector-curvature="0" /><path
       id="path23385"
       class="ps023"
       d="m 347.75706,472.8378 c -2.3317,-10.20114 -7.2865,-10.71118 -12.82428,-10.71118 -4.51764,0 -5.97496,1.53015 -7.43224,2.79801 -3.93475,3.35181 -5.24632,7.50513 -5.24632,17.86656 0,0.78697 -0.43719,14.63135 7.1408,19.8922 2.18595,1.44276 3.20607,1.53018 5.82922,1.53018 0.87438,0 3.49752,0.0874 5.82922,-1.02013 3.06033,-1.42815 6.26641,-4.05129 6.84934,-11.2358 l 29.87474,-0.24772 c -0.29145,1.92361 -1.45731,8.70009 -4.3719,14.28158 -7.43225,14.82078 -22.58825,20.99974 -37.88992,20.99974 -6.26641,0 -10.63835,-0.94722 -13.2615,-1.42815 -12.09564,-3.0312 -22.73395,-11.48358 -27.39731,-23.59377 -1.31157,-3.65783 -3.06036,-9.23932 -3.06036,-18.49319 0,-3.81812 0.14574,-13.69869 5.53776,-23.57919 0.72865,-1.58847 3.2061,-5.58146 6.7036,-9.23934 11.36699,-11.16293 28.27173,-11.48354 32.35219,-11.48354 15.73887,0 25.50283,5.90208 30.31193,10.36145 1.45732,1.44271 4.37191,5.29001 6.70361,10.55086 1.8945,4.29906 2.91459,8.13178 3.64326,12.75143 h -29.29184"
       style="font-size:3.49419999px;font-family:fnt1, FranklinGothic, Arial;letter-spacing:0;word-spacing:0.10098;fill:#000000;fill-rule:nonzero;stroke:none;stroke-width:0.011;stroke-linecap:butt;stroke-linejoin:miter;stroke-miterlimit:4;stroke-dasharray:none"
       inkscape:connector-curvature="0" /><path
       id="path23387"
       class="ps023"
       d="m -12.63441,500.38087 v -22.98172 c 0,-7.18451 0,-16.84642 -3.060358,-23.69577 -2.040222,-4.41564 -3.497531,-6.8639 -7.723691,-9.63278 -10.492619,-7.02419 -25.940026,-5.69807 -29.437582,-5.69807 -18.507766,0 -27.980248,4.88199 -33.955199,11.5856 -4.809099,5.55233 -5.82921,10.98806 -7.140803,17.69166 h 29.291841 c 0.145741,-2.62316 0.582938,-3.59953 1.165827,-4.75081 1.603049,-2.11311 3.934728,-4.77996 9.763938,-4.77996 6.55789,0 10.784075,3.33724 10.784075,6.6016 0,1.79245 -0.145716,4.72165 -1.457283,5.69805 -1.311568,0.99095 -4.663409,2.15683 -5.246322,2.31712 -1.457284,0.24775 -3.35179,0.68492 -5.683494,1.29699 l -15.301692,1.93822 c -9.181025,2.12767 -16.321803,3.99302 -22.296779,11.99362 -4.371901,5.55233 -4.371901,10.62375 -4.371901,13.23233 0,11.10467 4.809099,17.51679 8.015173,20.30025 7.43226,6.19356 18.070594,5.96039 20.693754,5.96039 14.427297,0 22.005272,-6.3393 26.522914,-9.76394 l 1.311568,8.01518 h 31.6235453 c -1.7487653,-5.55234 -3.6432723,-8.4524 -3.4975313,-25.32796 z m -38.618582,7.79656 c -2.040247,0.65581 -5.537778,0.51007 -6.412148,0.46634 -5.246297,-0.34975 -8.015173,-5.12972 -8.015173,-7.91317 0,-6.20812 4.95484,-7.21365 6.557889,-7.53424 l 3.35179,-0.93269 c 4.226186,-1.47186 8.598087,-2.71058 12.824272,-4.18247 l 0.145741,10.79863 c -1.311593,2.4337 -2.768902,7.66542 -8.452371,9.2976"
       style="font-size:3.49419999px;font-family:fnt1, FranklinGothic, Arial;letter-spacing:0;word-spacing:0.10098;fill:#000000;fill-rule:nonzero;stroke:none;stroke-width:0.011;stroke-linecap:butt;stroke-linejoin:miter;stroke-miterlimit:4;stroke-dasharray:none"
       inkscape:connector-curvature="0" /><path
       id="path23389"
       class="ps023 ps14 ps23"
       d="m 220.09717,525.00933 v -41.12516 c 0,4.86739 1.45731,-15.69518 -2.91462,-17.76456 -1.45728,-0.68491 -4.22619,-2.11309 -7.43226,-2.04019 -3.78899,0.0728 -8.16091,1.90906 -9.47248,5.27543 -1.74877,4.1096 -2.62314,6.90761 -2.4774,15.44743 l -0.29148,40.36735 -30.74912,-0.13119 v -84.58198 h 29.5833 l 0.43717,9.82229 c 4.08047,-4.99858 8.88957,-11.45447 26.52296,-11.45447 12.67853,0 22.44247,5.39204 26.37723,18.37666 0.87437,3.27892 1.02008,5.42114 1.45728,12.15391 v 55.68359 l -31.04058,-0.0291"
       style="font-size:3.49419999px;font-family:fnt1, FranklinGothic, Arial;letter-spacing:0;word-spacing:0.10098;fill:#000000;fill-rule:nonzero;stroke:none;stroke-width:0.011;stroke-linecap:butt;stroke-linejoin:miter;stroke-miterlimit:4;stroke-dasharray:none"
       inkscape:connector-curvature="0" /></g></g></svg>